<?xml version="1.0" encoding="utf-8"?>
<!-- Generator: Adobe Illustrator 19.0.0, SVG Export Plug-In . SVG Version: 6.00 Build 0)  -->
<svg version="1.1" id="Layer_1" xmlns="http://www.w3.org/2000/svg" xmlns:xlink="http://www.w3.org/1999/xlink" x="0px" y="0px"
	 viewBox="0 0 383 437.5" style="enable-background:new 0 0 383 437.5;" xml:space="preserve">
<style type="text/css">
	.st0{fill:#66371b;}
</style>
<path class="st0" d="M302,109.5C301,48,252,0,191.5,0S82,48,81,109.5H0v270c0,37.5,30.5,58.5,68.5,58h123h123
	c38,0.5,68.5-20.5,68.5-58v-270H302z M191.5,31c51.3,0,78,40,78,78.5h-78h-78C113.5,71,138.2,31,191.5,31z M352,379.5
	c-1,15-21.5,27.5-37.5,27.5h-123h-123c-16,0-36.5-12.5-37.5-27.5V141h51.5v34c0,12,3.5,20,16,20s15-8,15-19v-35h78h78v35
	c0,11,2.5,19,15,19s16-8,16-20v-34H352V379.5z"/>
</svg>
