<?xml version="1.0" encoding="utf-8"?>
<!-- Generator: Adobe Illustrator 19.0.0, SVG Export Plug-In . SVG Version: 6.00 Build 0)  -->
<svg version="1.1" id="Layer_1" xmlns="http://www.w3.org/2000/svg" xmlns:xlink="http://www.w3.org/1999/xlink" x="0px" y="0px"
	 viewBox="-227.9 334.6 114.5 43.9" style="enable-background:new -227.9 334.6 114.5 43.9;" xml:space="preserve">
<style type="text/css">
	.st0{fill:#3C3438;}
</style>
<g id="XMLID_556_">
	<path id="XMLID_560_" class="st0" d="M-155,376c-15.9,6.4-22.8-1.6-24.8-7c-0.1-0.3-0.4-0.4-0.7-0.2c-2.2,1.5-11.4,7.6-12.7,8.3
		c-1.5,0.8-2.2,0.4-2.2-0.8c0-1.2,14.7-32.8,15.6-35c1-2.2,2.8-7.5,4.6-6.6c1.8,0.9,1,3.2,0.5,5.4c-0.5,2.2-5.4,22.2-17.8,28.8
		c-12.4,6.6-21.8,8.6-24.3,9.1c-2.4,0.5-9.1,1.9-10.8-4.7s5.6-17.4,8.6-21.5s9-10.7,11.9-11.4c4.5-1.2,7.5,2.2,6.7,6.8
		c-0.8,4.6-3.6,9.8-5.4,13.2s-2.9,5.4-4.7,6.1c-0.6,0.2-2.9,0.3,0-3.8c4.1-5.8,7.4-13.5,7.8-15.7c0.4-2.2-0.4-4.1-1.9-4.6
		s-6.2,0.8-12.2,9.8c-6,9-7.5,14.9-7.9,17.1c-0.5,2.2-1,6.6,5.4,7c6.4,0.4,23.5-7.5,28.4-11.1c8-6.1,14-21.6,14-25.2l-14.4,33.2
		c0,0,9.7-6.4,10.5-6.8c0.8-0.5,2-1.2,2.4,0.3c2.9,10.1,11.7,10.8,18.6,8.5c6.8-2.2,14.7-7.1,16.3-8.6c1.7-1.5,3.2-1.5,3.7-0.9
		s0.2,1.5-1.2,2.6C-141.9,369.2-150.6,374-155,376z"/>
	<path id="XMLID_559_" class="st0" d="M-141.6,363.8c-3.6-1-10.1,3.3-10.8,6.3c-0.7,3,1.4,6.4,7.2,7.8c5.7,1.4,15.3,0.7,30.9-10
		c2.3-1.3-0.4-2.9-1.2-2.6c-2.6,0.9-2.2,1.6-3.9,2.9s-11,8.3-23.5,7.7c-9.5-1.1-8.2-6.5-5.6-8c0.8-0.4,3.9-2.3,6.4-1.3
		c1.4,0.6,0.8,2,1.4,1.6c0.3-0.3,1.5-1,1-2.7C-140,364.4-140.5,364.1-141.6,363.8z"/>
	<path id="XMLID_557_" class="st0" d="M-145.9,357.8c0.5,0.1,0.8,0.3,1,0.3c0.4,0.1,1.3,0.2,3.6-0.5c2.3-0.7,4.2-1.8,5.1-2.3
		c0.4-0.2,1-0.9,1.3-1c0.4-0.2,1.3-0.4,1.5-0.2c0.6,0.6-1.5,2.5-1.7,2.6c-0.4,0.4-2.3,1.6-5.2,2.8c-2.9,1.2-5.3,1.4-6.3,1.3
		c-0.4-0.1-1.2-0.3-1.4-1.5C-148.2,358.3-147.2,357.6-145.9,357.8z"/>
</g>
</svg>
