<?xml version="1.0" encoding="utf-8"?>
<!-- Generator: Adobe Illustrator 19.0.0, SVG Export Plug-In . SVG Version: 6.00 Build 0)  -->
<svg version="1.1" id="Layer_1" xmlns="http://www.w3.org/2000/svg" xmlns:xlink="http://www.w3.org/1999/xlink" x="0px" y="0px"
	 viewBox="0 0 1051.7 271.7" style="enable-background:new 0 0 1051.7 271.7;" xml:space="preserve">
<style type="text/css">
	.st0{opacity:0.5;}
	.st1{fill:#66371B;}
</style>
<g id="XMLID_1_" class="st0">
	<path id="XMLID_44_" class="st1" d="M550.7,12.8c0,0-0.8,0-2.3,0.1c-0.8,0-1.7,0-2.9,0.1c-1.1,0.1-2.5,0.1-4,0.2
		c-6,0.4-14.8,1.3-25.6,4.1c-5.4,1.4-11.3,3.3-17.5,5.9c-6.2,2.6-12.6,6-18.9,10.6c-1.6,1.1-3.1,2.3-4.7,3.6c-0.8,0.6-1.5,1.3-2.3,2
		l-1.1,1l-1.1,1.1c-3,2.8-5.8,6-8.4,9.5c-2.6,3.5-4.9,7.3-6.9,11.4c-1.9,4.1-3.4,8.5-4.4,13.2c-1,4.6-1.4,9.5-1.3,14.4
		c0,2.5,0.3,5,0.5,7.5c0.2,1.2,0.4,2.5,0.5,3.7c0.3,1.2,0.5,2.5,0.8,3.7c1.2,5,2.9,9.9,5.2,14.7c2.3,4.8,5.1,9.3,8.4,13.7
		c6.7,8.6,15.1,16.2,24.6,22.7c9.5,6.5,19.9,12,30.9,16.8c11,4.8,22.5,8.8,34.4,12.2c5.9,1.7,11.9,3.3,18,4.7
		c6.1,1.4,12.2,2.8,18.4,4c12.4,2.4,24.9,4.3,37.6,5.9c12.7,1.6,25.4,2.8,38.2,3.7c25.5,1.8,51.1,2.4,76.3,2c25.2-0.5,49.9-2,73.8-4
		c23.9-2.1,46.9-4.7,68.7-8c10.9-1.6,21.4-3.4,31.6-5.2c10.2-1.9,20-3.8,29.3-6c18.7-4.3,35.6-9,50.3-14.4c7.3-2.7,14-5.5,20.1-8.5
		c6-3,11.4-6.1,16-9.3c4.6-3.2,8.3-6.5,11.1-9.8c2.8-3.3,4.7-6.5,5.8-9.3c0.1-0.3,0.3-0.7,0.4-1c0.1-0.3,0.2-0.7,0.3-1
		c0.2-0.6,0.4-1.2,0.5-1.8c0.2-1.1,0.4-2.1,0.5-2.8c0.1-1.5,0.2-2.3,0.2-2.3h0.2c0,0,0,0.8-0.1,2.4c0,0.8-0.3,1.7-0.4,2.9
		c-0.1,0.6-0.3,1.2-0.5,1.8c-0.1,0.3-0.2,0.7-0.3,1c-0.1,0.3-0.3,0.7-0.4,1c-1.1,2.8-2.9,6.1-5.7,9.5c-2.8,3.4-6.5,6.8-11.1,10.1
		c-9.1,6.7-21.5,12.7-36.1,18.2c-14.6,5.5-31.6,10.5-50.3,14.9c-18.7,4.4-39.2,8.4-61,11.6c-10.9,1.6-22.1,3.1-33.6,4.5
		c-11.5,1.4-23.2,2.6-35.2,3.6c-23.9,2-48.7,3.4-74,3.7c-25.2,0.2-50.9-0.6-76.4-2.6c-12.8-1-25.5-2.4-38.2-4
		c-12.7-1.7-25.2-3.6-37.6-6.1c-24.7-4.8-48.9-11.2-71.1-20.5c-11.1-4.6-21.7-10.1-31.3-16.5c-9.6-6.5-18.3-14.1-25.1-22.9
		c-6.8-8.8-11.7-18.7-14-29c-0.3-1.3-0.5-2.6-0.8-3.8c-0.2-1.3-0.4-2.6-0.5-3.8c-0.3-2.6-0.5-5.1-0.5-7.6c-0.1-5.1,0.4-10,1.4-14.8
		c1-4.8,2.6-9.3,4.6-13.5c2-4.2,4.4-8.1,7.1-11.6c1.3-1.8,2.7-3.4,4.1-5.1c0.7-0.8,1.5-1.6,2.2-2.3c0.7-0.8,1.5-1.5,2.3-2.2l1.1-1.1
		l1.2-1c0.8-0.7,1.5-1.3,2.3-2c1.6-1.2,3.2-2.5,4.8-3.6c6.4-4.5,13-7.9,19.3-10.5c6.3-2.6,12.2-4.4,17.7-5.7
		c10.9-2.6,19.8-3.3,25.8-3.6c1.5-0.1,2.8-0.1,4-0.2c1.1,0,2.1,0,2.9,0c1.6,0,2.4,0,2.4,0L550.7,12.8z"/>
</g>
<g id="XMLID_8_" class="st0">
	<path id="XMLID_42_" class="st1" d="M550.7,0.2c0,0-0.8,0-2.3,0.1c-0.8,0-1.7,0-2.9,0.1c-1.1,0.1-2.5,0.1-4,0.2
		c-6,0.4-14.8,1.3-25.6,4.1c-5.4,1.4-11.3,3.3-17.5,5.9c-6.2,2.6-12.6,6-18.9,10.6c-1.6,1.1-3.1,2.3-4.7,3.6c-0.8,0.6-1.5,1.3-2.3,2
		l-1.1,1l-1.1,1.1c-3,2.8-5.8,6-8.4,9.5c-2.6,3.5-4.9,7.3-6.9,11.4c-1.9,4.1-3.4,8.5-4.4,13.2c-1,4.6-1.4,9.5-1.3,14.4
		c0,2.5,0.3,5,0.5,7.5c0.2,1.2,0.4,2.5,0.5,3.7c0.3,1.2,0.5,2.5,0.8,3.7c1.2,5,2.9,9.9,5.2,14.7c2.3,4.8,5.1,9.3,8.4,13.7
		c6.7,8.6,15.1,16.2,24.6,22.7c9.5,6.5,19.9,12,30.9,16.8c11,4.8,22.5,8.8,34.4,12.2c5.9,1.7,11.9,3.3,18,4.7
		c6.1,1.4,12.2,2.8,18.4,4c12.4,2.4,24.9,4.3,37.6,5.9c12.7,1.6,25.4,2.8,38.2,3.7c25.5,1.8,51.1,2.4,76.3,2c25.2-0.5,49.9-2,73.8-4
		c23.9-2.1,46.9-4.7,68.7-8c10.9-1.6,21.4-3.4,31.6-5.2c10.2-1.9,20-3.8,29.3-6c18.7-4.3,35.6-9,50.3-14.4c7.3-2.7,14-5.5,20.1-8.5
		c6-3,11.4-6.1,16-9.3c4.6-3.2,8.3-6.5,11.1-9.8c2.8-3.3,4.7-6.5,5.8-9.3c0.1-0.3,0.3-0.7,0.4-1c0.1-0.3,0.2-0.7,0.3-1
		c0.2-0.6,0.4-1.2,0.5-1.8c0.2-1.1,0.4-2.1,0.5-2.8c0.1-1.5,0.2-2.3,0.2-2.3h0.2c0,0,0,0.8-0.1,2.4c0,0.8-0.3,1.7-0.4,2.9
		c-0.1,0.6-0.3,1.2-0.5,1.8c-0.1,0.3-0.2,0.7-0.3,1c-0.1,0.3-0.3,0.7-0.4,1c-1.1,2.8-2.9,6.1-5.7,9.5c-2.8,3.4-6.5,6.8-11.1,10.1
		c-9.1,6.7-21.5,12.7-36.1,18.2c-14.6,5.5-31.6,10.5-50.3,14.9c-18.7,4.4-39.2,8.4-61,11.6c-10.9,1.6-22.1,3.1-33.6,4.5
		c-11.5,1.4-23.2,2.6-35.2,3.6c-23.9,2-48.7,3.4-74,3.7c-25.2,0.2-50.9-0.6-76.4-2.6c-12.8-1-25.5-2.4-38.2-4
		c-12.7-1.7-25.2-3.6-37.6-6.1c-24.7-4.8-48.9-11.2-71.1-20.5c-11.1-4.6-21.7-10.1-31.3-16.5c-9.6-6.5-18.3-14.1-25.1-22.9
		c-6.8-8.8-11.7-18.7-14-29c-0.3-1.3-0.5-2.6-0.8-3.8c-0.2-1.3-0.4-2.6-0.5-3.8c-0.3-2.6-0.5-5.1-0.5-7.6c-0.1-5.1,0.4-10,1.4-14.8
		c1-4.8,2.6-9.3,4.6-13.5c2-4.2,4.4-8.1,7.1-11.6c1.3-1.8,2.7-3.4,4.1-5.1c0.7-0.8,1.5-1.6,2.2-2.3c0.7-0.8,1.5-1.5,2.3-2.2l1.1-1.1
		l1.2-1c0.8-0.7,1.5-1.3,2.3-2c1.6-1.2,3.2-2.5,4.8-3.6c6.4-4.5,13-7.9,19.3-10.5c6.3-2.6,12.2-4.4,17.7-5.7
		c10.9-2.6,19.8-3.3,25.8-3.6c1.5-0.1,2.8-0.1,4-0.2c1.1,0,2.1,0,2.9,0c1.6,0,2.4,0,2.4,0L550.7,0.2z"/>
</g>
<g id="XMLID_9_" class="st0">
	<path id="XMLID_40_" class="st1" d="M501,258.9c0,0,0.8,0,2.3-0.1c0.8,0,1.7,0,2.9-0.1c1.1-0.1,2.5-0.1,4-0.2
		c6-0.4,14.8-1.3,25.6-4.1c5.4-1.4,11.3-3.3,17.5-5.9c6.2-2.6,12.6-6,18.9-10.6c1.6-1.1,3.1-2.3,4.7-3.6c0.8-0.6,1.5-1.3,2.3-2
		l1.1-1l1.1-1.1c3-2.8,5.8-6,8.4-9.5c2.6-3.5,4.9-7.3,6.9-11.4c1.9-4.1,3.4-8.5,4.4-13.2c1-4.6,1.4-9.5,1.3-14.4
		c0-2.5-0.3-5-0.5-7.5c-0.2-1.2-0.4-2.5-0.5-3.7c-0.3-1.2-0.5-2.5-0.8-3.7c-1.2-5-2.9-9.9-5.2-14.7c-2.3-4.8-5.1-9.3-8.4-13.7
		c-6.7-8.6-15.1-16.2-24.6-22.7c-9.5-6.5-19.9-12-30.9-16.8c-11-4.8-22.5-8.8-34.4-12.2c-5.9-1.7-11.9-3.3-18-4.7
		c-6.1-1.4-12.2-2.8-18.4-4c-12.4-2.4-24.9-4.3-37.6-5.9c-12.7-1.6-25.4-2.8-38.2-3.7c-25.5-1.8-51.1-2.4-76.3-2
		c-25.2,0.5-49.9,2-73.8,4c-23.9,2.1-46.9,4.7-68.7,8c-10.9,1.6-21.4,3.4-31.6,5.2c-10.2,1.9-20,3.8-29.3,6
		c-18.7,4.3-35.6,9-50.3,14.4c-7.3,2.7-14,5.5-20.1,8.5c-6,3-11.4,6.1-16,9.3c-4.6,3.2-8.3,6.5-11.1,9.8c-2.8,3.3-4.7,6.5-5.8,9.3
		c-0.1,0.3-0.3,0.7-0.4,1c-0.1,0.3-0.2,0.7-0.3,1c-0.2,0.6-0.4,1.2-0.5,1.8c-0.2,1.1-0.4,2.1-0.5,2.8c-0.1,1.5-0.2,2.3-0.2,2.3H0
		c0,0,0-0.8,0.1-2.4c0-0.8,0.3-1.7,0.4-2.9c0.1-0.6,0.3-1.2,0.5-1.8c0.1-0.3,0.2-0.7,0.3-1c0.1-0.3,0.3-0.7,0.4-1
		c1.1-2.8,2.9-6.1,5.7-9.5c2.8-3.4,6.5-6.8,11.1-10.1c9.1-6.7,21.5-12.7,36.1-18.2c14.6-5.5,31.6-10.5,50.3-14.9
		c18.7-4.4,39.2-8.4,61-11.6c10.9-1.6,22.1-3.1,33.6-4.5c11.5-1.4,23.2-2.6,35.2-3.6c23.9-2,48.7-3.4,74-3.7
		c25.2-0.2,50.9,0.6,76.4,2.6c12.8,1,25.5,2.4,38.2,4c12.7,1.7,25.2,3.6,37.6,6.1c24.7,4.8,48.9,11.2,71.1,20.5
		c11.1,4.6,21.7,10.1,31.3,16.5c9.6,6.5,18.3,14.1,25.1,22.9c6.8,8.8,11.7,18.7,14,29c0.3,1.3,0.5,2.6,0.8,3.8
		c0.2,1.3,0.4,2.6,0.5,3.8c0.3,2.6,0.5,5.1,0.5,7.6c0.1,5.1-0.4,10-1.4,14.8c-1,4.8-2.6,9.3-4.6,13.5c-2,4.2-4.4,8.1-7.1,11.6
		c-1.3,1.8-2.7,3.4-4.1,5.1c-0.7,0.8-1.5,1.6-2.2,2.3c-0.7,0.8-1.5,1.5-2.3,2.2l-1.1,1.1l-1.2,1c-0.8,0.7-1.5,1.3-2.3,2
		c-1.6,1.2-3.2,2.5-4.8,3.6c-6.4,4.5-13,7.9-19.3,10.5c-6.3,2.6-12.2,4.4-17.7,5.7c-10.9,2.6-19.8,3.3-25.8,3.6
		c-1.5,0.1-2.8,0.1-4,0.2c-1.1,0-2.1,0-2.9,0c-1.6,0-2.4,0-2.4,0L501,258.9z"/>
</g>
<g id="XMLID_7_" class="st0">
	<path id="XMLID_18_" class="st1" d="M501,271.5c0,0,0.8,0,2.3-0.1c0.8,0,1.7,0,2.9-0.1c1.1-0.1,2.5-0.1,4-0.2
		c6-0.4,14.8-1.3,25.6-4.1c5.4-1.4,11.3-3.3,17.5-5.9c6.2-2.6,12.6-6,18.9-10.6c1.6-1.1,3.1-2.3,4.7-3.6c0.8-0.6,1.5-1.3,2.3-2
		l1.1-1l1.1-1.1c3-2.8,5.8-6,8.4-9.5c2.6-3.5,4.9-7.3,6.9-11.4c1.9-4.1,3.4-8.5,4.4-13.2c1-4.6,1.4-9.5,1.3-14.4
		c0-2.5-0.3-5-0.5-7.5c-0.2-1.2-0.4-2.5-0.5-3.7c-0.3-1.2-0.5-2.5-0.8-3.7c-1.2-5-2.9-9.9-5.2-14.7c-2.3-4.8-5.1-9.3-8.4-13.7
		c-6.7-8.6-15.1-16.2-24.6-22.7c-9.5-6.5-19.9-12-30.9-16.8c-11-4.8-22.5-8.8-34.4-12.2c-5.9-1.7-11.9-3.3-18-4.7
		c-6.1-1.4-12.2-2.8-18.4-4c-12.4-2.4-24.9-4.3-37.6-5.9c-12.7-1.6-25.4-2.8-38.2-3.7c-25.5-1.8-51.1-2.4-76.3-2
		c-25.2,0.5-49.9,2-73.8,4c-23.9,2.1-46.9,4.7-68.7,8c-10.9,1.6-21.4,3.4-31.6,5.2c-10.2,1.9-20,3.8-29.3,6
		c-18.7,4.3-35.6,9-50.3,14.4c-7.3,2.7-14,5.5-20.1,8.5c-6,3-11.4,6.1-16,9.3c-4.6,3.2-8.3,6.5-11.1,9.8c-2.8,3.3-4.7,6.5-5.8,9.3
		c-0.1,0.3-0.3,0.7-0.4,1c-0.1,0.3-0.2,0.7-0.3,1c-0.2,0.6-0.4,1.2-0.5,1.8c-0.2,1.1-0.4,2.1-0.5,2.8c-0.1,1.5-0.2,2.3-0.2,2.3H0
		c0,0,0-0.8,0.1-2.4c0-0.8,0.3-1.7,0.4-2.9c0.1-0.6,0.3-1.2,0.5-1.8c0.1-0.3,0.2-0.7,0.3-1c0.1-0.3,0.3-0.7,0.4-1
		c1.1-2.8,2.9-6.1,5.7-9.5c2.8-3.4,6.5-6.8,11.1-10.1c9.1-6.7,21.5-12.7,36.1-18.2c14.6-5.5,31.6-10.5,50.3-14.9
		c18.7-4.4,39.2-8.4,61-11.6c10.9-1.6,22.1-3.1,33.6-4.5c11.5-1.4,23.2-2.6,35.2-3.6c23.9-2,48.7-3.4,74-3.7
		c25.2-0.2,50.9,0.6,76.4,2.6c12.8,1,25.5,2.4,38.2,4c12.7,1.7,25.2,3.6,37.6,6.1c24.7,4.8,48.9,11.2,71.1,20.5
		c11.1,4.6,21.7,10.1,31.3,16.5c9.6,6.5,18.3,14.1,25.1,22.9c6.8,8.8,11.7,18.7,14,29c0.3,1.3,0.5,2.6,0.8,3.8
		c0.2,1.3,0.4,2.6,0.5,3.8c0.3,2.6,0.5,5.1,0.5,7.6c0.1,5.1-0.4,10-1.4,14.8c-1,4.8-2.6,9.3-4.6,13.5c-2,4.2-4.4,8.1-7.1,11.6
		c-1.3,1.8-2.7,3.4-4.1,5.1c-0.7,0.8-1.5,1.6-2.2,2.3c-0.7,0.8-1.5,1.5-2.3,2.2l-1.1,1.1l-1.2,1c-0.8,0.7-1.5,1.3-2.3,2
		c-1.6,1.2-3.2,2.5-4.8,3.6c-6.4,4.5-13,7.9-19.3,10.5c-6.3,2.6-12.2,4.4-17.7,5.7c-10.9,2.6-19.8,3.3-25.8,3.6
		c-1.5,0.1-2.8,0.1-4,0.2c-1.1,0-2.1,0-2.9,0c-1.6,0-2.4,0-2.4,0L501,271.5z"/>
</g>
</svg>
