<?xml version="1.0" encoding="utf-8"?>
<!-- Generator: Adobe Illustrator 19.0.0, SVG Export Plug-In . SVG Version: 6.00 Build 0)  -->
<svg version="1.1" id="Layer_1" xmlns="http://www.w3.org/2000/svg" xmlns:xlink="http://www.w3.org/1999/xlink" x="0px" y="0px"
	 viewBox="-152.5 352.1 71.8 45.6" style="enable-background:new -152.5 352.1 71.8 45.6;" xml:space="preserve">
<style type="text/css">
	.st0{display:none;}
	.st1{display:inline;}
	.st2{fill:#FBD4DA;}
	.st3{fill:#3C3438;}
	.st4{fill:#FFFFFF;}
	.st5{fill:#665E63;}
</style>
<g id="Layer_1_1_">
	<g id="XMLID_1_" class="st0">
		<g id="XMLID_19_" class="st1">
			<g id="XMLID_20_">
				<g id="XMLID_21_">
					<polygon id="XMLID_22_" class="st2" points="-146.2,344.3 -153.2,335.6 -170.4,350.7 -181.7,367.8 -176.5,371 -176.5,371 
						-172.3,373.7 					"/>
				</g>
			</g>
		</g>
	</g>
	<g id="XMLID_630_">
		<g id="XMLID_446_">
			<path id="XMLID_32_" class="st3" d="M-86.2,362.5c0,0,0.5,0.6,1.4,1.8c0.2,0.3,0.5,0.6,0.7,0.9c0.2,0.4,0.5,0.8,0.7,1.2
				c0.2,0.4,0.5,0.9,0.8,1.4c0.2,0.5,0.4,1.1,0.7,1.6c0.1,0.3,0.2,0.6,0.3,0.9c0.1,0.3,0.2,0.6,0.2,0.9c0.1,0.6,0.4,1.3,0.5,2
				c0.1,0.7,0.2,1.4,0.2,2.2c0,0.7,0,1.5,0,2.3c-0.1,1.5-0.3,3.1-0.7,4.7c-0.2,0.8-0.5,1.6-0.7,2.3c-0.2,0.8-0.6,1.5-0.9,2.3
				c-0.7,1.5-1.5,2.9-2.4,4.3c-0.4,0.7-0.9,1.3-1.4,1.9s-1,1.2-1.6,1.7s-1.1,1.1-1.7,1.5l-0.4,0.3l-0.1,0.1l0,0l0,0h-0.1l-0.2,0.1
				c-0.3,0.2-0.7,0.3-1,0.4c-1.4,0.5-2.8,0.5-4,0.1c-1.2-0.4-2.1-1.1-2.8-1.9c-0.7-0.7-1.1-1.5-1.5-2.1c-0.3-0.6-0.6-1.1-0.7-1.5
				c-0.1-0.4-0.2-0.5-0.2-0.5l0,0c0,0,0.1,0.2,0.2,0.5c0.2,0.4,0.4,0.8,0.8,1.5c0.4,0.6,0.9,1.3,1.5,2c0.7,0.7,1.6,1.4,2.7,1.7
				c1.1,0.3,2.5,0.3,3.7-0.2c0.3-0.1,0.6-0.3,0.9-0.4l0.2-0.1h0.1l0,0l0,0l0,0l0.1-0.1l0.4-0.3c0.6-0.4,1.1-0.9,1.7-1.4
				c0.5-0.5,1-1.1,1.5-1.7c0.5-0.6,1-1.2,1.4-1.9c0.9-1.3,1.7-2.7,2.4-4.2c0.3-0.7,0.7-1.5,0.9-2.2c0.3-0.8,0.6-1.5,0.7-2.3
				c0.4-1.5,0.6-3.1,0.8-4.6c0-0.8,0-1.5,0-2.2c-0.1-0.7-0.1-1.4-0.2-2.1c-0.1-0.7-0.3-1.3-0.4-2c-0.1-0.3-0.2-0.6-0.2-0.9
				c-0.1-0.3-0.2-0.6-0.3-0.9c-0.2-0.6-0.4-1.1-0.6-1.6c-0.2-0.5-0.5-0.9-0.8-1.4c-0.2-0.4-0.5-0.8-0.7-1.2s-0.5-0.7-0.7-1
				C-85.7,363.2-86.2,362.6-86.2,362.5L-86.2,362.5z"/>
		</g>
		<g id="XMLID_632_">
			<path id="XMLID_633_" class="st4" d="M-94.4,360.8c-6.2,1.9-10.5,7.9-12.8,13.7c-2.6,6.5-2.9,14.3,1.1,20.3
				c1.5,2.2,5.1,0,3.7-2.1c-3.4-5-3.1-11.2-1.1-16.7c1.7-4.5,5-9.7,9.9-11.2C-91.1,364-91.8,359.9-94.4,360.8L-94.4,360.8z"/>
		</g>
		<g id="XMLID_345_">
			<path id="XMLID_12_" class="st3" d="M-98.8,395.8c-0.1,0.2-0.3,0.3-0.5,0.5c-0.2,0.1-0.4,0.2-0.7,0.2c-0.5,0-0.9-0.3-1.2-0.6l0,0
				l0,0c-0.3-0.3-0.7-0.7-1-1.1c-0.3-0.4-0.6-0.8-0.8-1.2c-0.3-0.4-0.5-0.9-0.7-1.3c-0.2-0.4-0.4-0.9-0.5-1.4
				c-0.2-0.5-0.3-0.9-0.4-1.4s-0.2-1-0.3-1.5c0-0.5-0.1-1-0.1-1.5V385l0.1-1.5c0-0.5,0.1-1,0.2-1.5s0.2-1,0.3-1.4
				c0.1-0.5,0.2-1,0.4-1.4l0.5-1.4l0.6-1.4c0.4-0.9,0.8-1.8,1.3-2.6l0,0c-0.4,0.9-0.8,1.7-1.2,2.7l-0.5,1.4l-0.4,1.4
				c-0.1,0.5-0.2,0.9-0.3,1.4c-0.1,0.5-0.2,0.9-0.3,1.4c-0.1,0.5-0.1,1-0.2,1.4l-0.1,1.4l0.1,1.4c0,0.5,0.1,1,0.2,1.4
				c0.1,0.5,0.2,0.9,0.3,1.4c0.1,0.5,0.3,0.9,0.4,1.4c0.2,0.4,0.3,0.9,0.5,1.3s0.4,0.9,0.6,1.3c0.2,0.4,0.5,0.8,0.8,1.2
				s0.6,0.8,0.9,1.1l0,0c0.3,0.3,0.7,0.6,1.1,0.6C-99.5,396.4-99.1,396.1-98.8,395.8L-98.8,395.8z"/>
		</g>
		<path id="top_30_" class="st5" d="M-102.2,392.1c-0.6-1.7-1-3.4-1.2-5.2c-0.2-1.8-0.1-3.5,0.1-5.3c0.3-1.8,0.7-3.5,1.2-5.2
			c0.1-0.4,0.3-0.8,0.4-1.3l0.2-0.6c0.1-0.2,0.2-0.4,0.3-0.6c0.3-0.8,0.7-1.6,1.1-2.4c0.8-1.6,1.8-3.1,2.9-4.4
			c1.2-1.3,2.5-2.5,4.2-3.3c1.6-0.8,3.5-1,5.2-0.8c0.9,0.1,1.8,0.4,2.5,0.8c0.8,0.4,1.5,1,2,1.7c1.1,1.4,1.7,3.1,2,4.9
			c0.3,1.7,0.3,3.5,0.2,5.3c-0.1,1.8-0.4,3.5-0.8,5.2c-0.4,1.7-0.9,3.4-1.6,5.1c-0.6,1.6-1.4,3.2-2.4,4.7s-2.1,2.9-3.5,4
			c-1.4,1.1-3,2-4.8,2.2c-1.8,0.3-3.6-0.1-5.3-0.8h0.2c-0.3,0.1-0.6,0-0.8-0.1c-0.2-0.1-0.4-0.3-0.6-0.4c-0.2-0.1-0.4-0.3-0.5-0.4
			c-0.2-0.1-0.4-0.1-0.6-0.2c-0.4-0.1-0.9-0.3-1.3-0.6c-0.2-0.1-0.4-0.3-0.6-0.5l-0.2-0.3l-0.2-0.3c-0.6-0.8-1-1.6-1.3-2.5
			s-0.6-1.8-0.7-2.7c-0.2-0.9-0.3-1.9-0.3-2.8s0-1.9,0-2.8c0.1-0.9,0.2-1.9,0.3-2.8c0.1-0.9,0.3-1.9,0.5-2.8
			c0.2-0.9,0.4-1.8,0.7-2.7c0.1-0.4,0.3-0.9,0.5-1.3c0.2-0.4,0.3-0.9,0.6-1.3c0.2-0.4,0.4-0.9,0.6-1.3l0.3-0.6
			c0.1-0.2,0.2-0.4,0.4-0.6c0.1-0.2,0.2-0.4,0.4-0.6l0.4-0.6c0.3-0.4,0.6-0.7,0.9-1.1s0.6-0.7,0.9-1.1s0.7-0.7,1-1
			c0.2-0.2,0.3-0.3,0.5-0.5l0.5-0.5l0.5-0.5c0.2-0.2,0.4-0.3,0.6-0.4c0.8-0.5,1.7-0.9,2.6-1.1c0.5-0.1,0.9-0.1,1.4-0.2
			c0.5,0,0.9,0,1.4,0.2l0,0c0.3,0,0.5,0,0.8,0.1s0.5,0.3,0.7,0.3s0.5,0,0.8,0.1c0.3,0,0.5,0.1,0.8,0.2l0,0c-0.2-0.1-0.5-0.1-0.8-0.1
			s-0.5,0-0.8,0c-0.3-0.1-0.5-0.2-0.7-0.3c-0.2-0.1-0.5-0.1-0.7-0.1l0,0l0,0c-0.4-0.1-0.9-0.1-1.4-0.1s-0.9,0.1-1.4,0.2
			c-0.9,0.2-1.8,0.6-2.5,1.1c-0.2,0.1-0.4,0.3-0.6,0.4l-0.5,0.5l-0.5,0.5c-0.2,0.2-0.3,0.3-0.5,0.5c-0.3,0.3-0.7,0.6-1,1
			c-0.3,0.3-0.6,0.7-0.9,1c-0.3,0.4-0.6,0.7-0.8,1.1l-0.4,0.6c-0.1,0.2-0.2,0.4-0.4,0.6c-0.1,0.2-0.2,0.4-0.4,0.6l-0.3,0.6
			c-0.2,0.4-0.4,0.8-0.6,1.2s-0.4,0.9-0.5,1.3c-0.2,0.4-0.3,0.9-0.4,1.3c-0.3,0.9-0.5,1.8-0.7,2.7s-0.3,1.8-0.5,2.7
			c-0.1,0.9-0.2,1.8-0.3,2.8c-0.1,0.9-0.1,1.8,0,2.8c0,0.9,0.2,1.8,0.3,2.7c0.2,0.9,0.4,1.8,0.7,2.7c0.3,0.9,0.7,1.7,1.2,2.4
			l0.2,0.3l0.2,0.3c0.2,0.2,0.3,0.3,0.5,0.4c0.4,0.2,0.8,0.4,1.2,0.5c0.2,0.1,0.5,0.1,0.7,0.2c0.3,0.1,0.4,0.3,0.6,0.4
			s0.4,0.3,0.6,0.4s0.4,0.1,0.5,0.1h0.1h0.1c1.6,0.7,3.3,1,5,0.8c1.7-0.2,3.3-1,4.7-2.1c1.4-1.1,2.5-2.5,3.4-3.9
			c1-1.5,1.7-3,2.4-4.7c0.7-1.6,1.2-3.3,1.6-5c0.4-1.7,0.7-3.4,0.9-5.2c0.1-1.7,0.1-3.5-0.2-5.2c-0.3-1.7-0.9-3.4-2-4.8
			c-0.6-0.7-1.2-1.2-2-1.6c-0.8-0.4-1.6-0.7-2.5-0.8c-1.7-0.2-3.5,0-5,0.8c-1.6,0.8-2.9,1.9-4,3.2c-1.1,1.3-2.1,2.8-2.9,4.3
			c-0.4,0.8-0.8,1.6-1.1,2.4c-0.1,0.2-0.2,0.4-0.3,0.6l-0.2,0.6c-0.2,0.4-0.3,0.8-0.4,1.2c-0.6,1.7-1,3.4-1.3,5.1
			c-0.3,1.7-0.4,3.5-0.2,5.2C-103,388.7-102.6,390.4-102.2,392.1L-102.2,392.1z"/>
		<path id="XMLID_439_" class="st3" d="M-109.7,376.9c-0.8,2.9-1.1,5-0.8,7.5c0.2,2.5,1.1,4.9,2.1,7.2l0,0c-1.1-2.3-2.1-4.7-2.3-7.2
			c-0.3-2.5-0.2-3.9,0.7-7.6C-110,376.7-109.7,376.6-109.7,376.9z"/>
		<path id="XMLID_438_" class="st5" d="M-105.2,363c1-0.7,2.2-1.4,3.3-1.9c0.6-0.2,1.2-0.5,1.9-0.5c0.6,0,1.3,0,1.9,0
			c0.3,0,0.6,0.1,1,0.2c0.1,0,0.2,0.1,0.2,0.1c0.1,0,0.2,0.2,0.2,0.3c0,0.1-0.1,0.2-0.2,0.3s-0.2,0.1-0.2,0.1
			c-0.2,0.1-0.3,0.1-0.5,0.2c-0.2,0-0.3,0.1-0.5,0.1c-0.3,0.1-0.6,0.2-0.9,0.3c-1.2,0.5-2.2,1.1-3.2,1.9c-2,1.5-3.8,3.8-4.8,5.8
			c-0.1,0.2-0.5,0.5-0.3-0.2c0.5-1.4,2.9-4.3,4.9-5.9c1-0.8,2.1-1.4,3.3-1.9c0.3-0.1,0.6-0.2,0.9-0.3s0.6-0.1,0.9-0.3
			c0.1-0.1,0.3-0.2,0.3-0.2s-0.1-0.1-0.2-0.2c-0.3-0.1-0.6-0.1-0.9-0.2c-0.6-0.1-1.3-0.1-1.9,0s-1.2,0.3-1.8,0.5
			c-1.2,0.5-2.3,1.1-3.3,1.8c-0.9,0.7-1.1,0.9-2.9,2.5C-106.5,364-105.2,363-105.2,363z"/>
		<g id="XMLID_447_">
			<path id="XMLID_10_" class="st5" d="M-114.3,379.2c0,0,0,0.2-0.1,0.6c-0.1,0.4-0.1,1-0.2,1.7c-0.1,1.4,0,3.3,0.5,5
				c0.1,0.4,0.3,0.9,0.5,1.3c0.2,0.4,0.4,0.8,0.7,1.1c0.3,0.3,0.6,0.6,0.9,0.8c0.3,0.3,0.6,0.5,0.8,0.7c0.3,0.2,0.5,0.4,0.8,0.5
				c0.2,0.1,0.5,0.2,0.7,0.3c0.4,0.1,0.6,0.3,0.6,0.3l0,0c0,0-0.2-0.1-0.6-0.1c-0.4-0.1-1-0.2-1.6-0.6c-0.3-0.2-0.6-0.4-0.9-0.7
				c-0.3-0.2-0.6-0.5-0.9-0.9s-0.5-0.8-0.7-1.2c-0.2-0.4-0.3-0.9-0.5-1.3c-0.5-1.8-0.5-3.8-0.3-5.2c0.1-0.7,0.2-1.3,0.2-1.7
				C-114.4,379.4-114.4,379.2-114.3,379.2L-114.3,379.2z"/>
		</g>
		<path id="XMLID_139_" class="st3" d="M-113.6,383.2c0.1,1.3,0.3,2.5,0.6,3.7c0.2,1.2,0.7,2.4,1.4,3.4c0.4,0.5,0.8,0.9,1.3,1.3
			c0.5,0.3,1.1,0.6,1.7,0.6c0.2,0,0.4,0.1,0.5,0.2c0.2,0.1,0.3,0.2,0.4,0.2c0.3,0.1,0.6,0.3,0.9,0.4s0.6,0.3,0.8,0.4
			c0.1,0,0.3,0.1,0.4,0.1s0.1,0,0.1,0s0,0,0-0.1c0-0.2-0.2-0.5-0.3-0.8l-0.5-0.8c-0.3-0.5-0.7-1.1-0.9-1.7c-0.3-0.6-0.5-1.2-0.6-1.9
			c-0.1-0.6-0.2-1.3-0.3-1.9c-0.2-2.6-0.1-5.1,0.2-7.7c0.2-1.3,0.5-2.5,0.8-3.7c0.4-1.2,0.9-2.4,1.5-3.5c1.2-2.3,2.8-4.3,4.6-6.1
			c0.9-0.9,1.9-1.7,3-2.3c0.6-0.3,1.2-0.5,1.8-0.7c0.3-0.1,0.6-0.2,0.9-0.2s0.6-0.1,1-0.1v0.1c-0.1-0.1-0.1-0.2-0.2-0.2
			c-0.1-0.1-0.2-0.1-0.3-0.1c-0.2,0-0.4,0.1-0.7,0l0,0l0,0c-0.2-0.1-0.3-0.2-0.5-0.2s-0.4,0-0.6,0l0,0c0.2,0,0.4,0,0.6,0
			s0.4,0.1,0.6,0.2l0,0c0.2,0.1,0.4,0,0.6,0c0.1,0,0.2,0,0.3,0.1c0.1,0.1,0.2,0.2,0.2,0.2v0.1h-0.1c-0.6,0.1-1.3,0.1-1.8,0.4
			c-0.6,0.2-1.2,0.4-1.7,0.8c-1.1,0.6-2.1,1.5-3,2.3c-1.8,1.8-3.3,3.8-4.5,6.1c-0.6,1.1-1.1,2.3-1.4,3.5c-0.4,1.2-0.6,2.4-0.8,3.7
			c-0.4,2.5-0.4,5-0.2,7.5c0.1,0.6,0.1,1.2,0.3,1.9c0.1,0.6,0.3,1.2,0.6,1.8c0.3,0.6,0.6,1.1,0.9,1.7l0.5,0.8
			c0.1,0.1,0.2,0.3,0.2,0.4c0.1,0.2,0.1,0.3,0.1,0.6c0,0.1,0,0.3-0.1,0.4c-0.1,0.1-0.3,0.1-0.4,0.1c-0.2,0-0.4-0.1-0.5-0.1
			c-0.3-0.1-0.6-0.2-0.9-0.4c-0.3-0.1-0.6-0.3-0.8-0.4c-0.2-0.1-0.3-0.2-0.5-0.2c-0.1-0.1-0.2-0.1-0.4-0.1c-1.4-0.2-2.5-1.1-3.2-2.1
			c-0.8-1.1-1.2-2.3-1.4-3.6c-0.2-1.3-0.4-2.5-0.5-3.8c-0.3-2.6,0.2-4.8,1.1-9C-113,375.7-113.9,380.7-113.6,383.2z"/>
	</g>
	<g id="XMLID_600_">
		<g id="filling_6_">
			<path id="XMLID_442_" class="st4" d="M-144.9,379.4c12.3-2,24-5.6,35.2-11c0.1,0-5.1-8.1-6.9-7.2c-11.2,5.4-22.9,9-35.2,11
				c-0.4,0.1,2.7,3.9,2.9,4.1C-148.1,377.2-146.2,379.6-144.9,379.4L-144.9,379.4z"/>
		</g>
		<g id="bot_s2_6_">
			<path id="XMLID_30_" class="st5" d="M-140,380.7c0,0,2.1-0.5,5.2-1.4c3.1-0.9,7.2-2.1,11.3-3.5c1-0.3,2-0.7,3-1.1s2-0.7,2.9-1.1
				s1.8-0.8,2.6-1.2c0.8-0.4,1.6-0.8,2.2-1.2c0.7-0.4,1.3-0.9,1.8-1.2c0.5-0.4,1-0.7,1.3-1.1c0.1-0.2,0.2-0.4,0.1-0.4
				c-0.1-0.1-0.3-0.1-0.4,0c-0.2,0-0.4,0.1-0.4,0.1l0,0c0,0,0.1,0,0.4-0.1c0.1,0,0.3,0,0.5,0c0.1,0,0.2,0.2,0.1,0.3
				c0,0.1-0.1,0.2-0.2,0.3c-0.6,0.8-1.7,1.6-3,2.6c-0.7,0.5-1.4,0.9-2.2,1.4c-0.8,0.4-1.7,0.8-2.7,1.2c-1.9,0.8-3.9,1.5-5.9,2.1
				c-4.1,1.3-8.2,2.5-11.3,3.3C-137.9,380.3-140,380.7-140,380.7L-140,380.7z"/>
		</g>
		<g id="bot_s1_6_">
			<path id="XMLID_23_" class="st5" d="M-136.7,385.2c0,0,0.6-0.1,1.5-0.3c1-0.2,2.3-0.5,3.9-0.9c3.2-0.9,7.5-2.4,11.5-4.3
				c2-1,4-2,5.8-3.1s3.4-2.2,4.5-3.4c0.3-0.3,0.5-0.6,0.7-0.9c0.2-0.3,0.4-0.6,0.6-0.9c0.3-0.6,0.5-1.2,0.5-1.6
				c0-0.5-0.3-0.8-0.5-0.9s-0.4-0.1-0.4-0.1l0,0c0,0,0.1,0,0.4,0.1c0.2,0.1,0.6,0.4,0.7,0.9s-0.1,1.1-0.4,1.8
				c-0.1,0.3-0.3,0.6-0.5,1c-0.2,0.3-0.5,0.7-0.7,1c-1.2,1.3-2.8,2.4-4.6,3.5c-1.8,1.1-3.8,2.1-5.9,3.1c-4.1,1.9-8.3,3.3-11.6,4.2
				c-1.6,0.4-3,0.7-4,0.8C-136.2,385.2-136.7,385.3-136.7,385.2L-136.7,385.2z"/>
		</g>
		<path id="bottom_6_" class="st3" d="M-147.1,381.8c0.8,0.2,1.7,0.2,2.5,0.1c0.8-0.1,1.7-0.2,2.5-0.4c1.7-0.3,3.3-0.7,5-1.1
			c1.6-0.4,3.3-0.9,4.9-1.3c1.6-0.5,3.3-0.9,4.9-1.4c3.2-1,6.5-2.1,9.7-3.2c0.8-0.3,1.6-0.6,2.3-1c0.8-0.4,1.5-0.8,2.2-1.2
			c1.4-0.9,3.8-2.9,4.1-3c0.1-0.1,0.3,0,0.4,0c0.4,0.2,0.8,0.8,1,1.4c0.2,0.5,0.2,1.1,0.1,1.7c-0.3,1.1-0.9,1.9-1.6,2.7
			s-1.6,1.4-2.4,2c-0.9,0.6-1.8,1.1-2.7,1.6c-1.8,1-3.7,1.8-5.6,2.7c-1.9,0.8-3.8,1.6-5.8,2.2c-2,0.6-3.9,1.2-5.9,1.7
			s-4,0.9-6.1,1.2c-1,0.1-2.1,0.3-3.1,0.3c-1.1,0-2.1-0.1-3.1-0.4c-1-0.2-2.1-0.7-2.9-1.5c-0.8-0.8-1.2-1.9-1.4-3
			c0,0-0.7-0.4-0.9-0.9c-0.1-0.1-0.2-2.5-0.1-3c0.1-0.5,0.5-1.2,0.8-1.2c0.3-0.1,0.5,0.1,0.7,0.3c3.4,1.3,11.4-1.2,15.6-2.5
			c2.9-0.9,9-2.8,12-4.1c3-1.2,6.6-2.7,8.4-4.3c0.4-0.4,0.7-1,0.7-1.6v-0.3l0.2,0.1c0.4,0.2,0.8,0.6,1,1c0.2,0.5,0,0.9,0.2,1.3
			c0.2,0.4,0.5,0.8,0.5,1.2c0.1,0.5,0,0.9-0.2,1.3c0,0,0.2-0.9,0.1-1.3s-0.3-0.8-0.6-1.2c-0.1-0.2-0.2-0.5-0.2-0.7
			c0-0.2,0-0.4-0.1-0.6c-0.1-0.4-0.5-0.6-0.9-0.8l0.2-0.1c0,0.7-0.3,1.4-0.8,1.9s-1,0.9-1.6,1.2l0,0l-1,0.6l-1,0.5
			c-0.7,0.3-1.4,0.7-2.1,1c-1.4,0.6-2.8,1.2-4.3,1.7c-2.9,1.1-5.8,2.1-8.7,3c-1.5,0.5-2.9,0.9-4.4,1.3c-1.5,0.4-3,0.8-4.5,1.2
			c-1.5,0.3-3,0.7-4.6,0.9c-0.8,0.1-1.6,0.2-2.4,0.1c-0.4,0-0.9-0.1-1.3-0.3c-0.2-0.1-0.4-0.2-0.5-0.3c-0.1,0-0.3-0.1-0.5-0.1
			s-0.5,0.8-0.6,1.2c-0.1,0.4-0.1,0.8-0.1,1.3v0.7c0,0.1,0,0.2,0,0.3s0,0.2,0.1,0.3c0.1,0.3,0.4,0.6,0.7,0.8l0.2,0.1v0.2
			c0.2,1,0.5,1.9,1.2,2.5c0.6,0.7,1.6,1.1,2.5,1.3c4.2,0.8,9.5-0.2,12.6-1c3-0.8,10-3.1,15.6-5.9c1.8-1,6.7-3.5,7.7-6.7
			c0.2-0.9-0.1-2.5-0.6-2.4c-0.3,0.2-1.2,2.4-8.3,5.5c-3.2,1.2-6.5,2.2-9.7,3.2c-3.3,1-6.6,1.8-9.9,2.6c-1.7,0.4-3.3,0.7-5,0.9
			c-0.8,0.1-1.7,0.2-2.5,0.3C-145.5,382.1-146.4,382.1-147.1,381.8L-147.1,381.8z"/>
		<g id="top_s3_6_">
			<path id="XMLID_17_" class="st5" d="M-143.2,372.5c0,0,0.5-0.1,1.4-0.4c0.9-0.3,2.2-0.7,3.7-1.3c3.1-1.1,7.1-2.6,11.2-4.1
				c2-0.8,4-1.6,5.9-2.3c1.9-0.7,3.7-1.4,5.2-2c0.7-0.3,1.4-0.6,2-0.9c0.6-0.3,1.1-0.6,1.4-0.9c0.4-0.3,0.6-0.5,0.7-0.8
				c0.1-0.2,0.1-0.4,0.1-0.4l0,0c0,0,0,0.1-0.1,0.4c-0.1,0.2-0.3,0.5-0.7,0.9c-0.4,0.3-0.9,0.6-1.4,1c-0.6,0.4-1.2,0.7-2,1
				c-3,1.4-7,2.9-11.1,4.3c-4.1,1.5-8.2,2.9-11.3,3.9c-1.5,0.5-2.8,0.9-3.7,1.2C-142.7,372.4-143.2,372.5-143.2,372.5L-143.2,372.5z
				"/>
		</g>
		<g id="top_s2_6_">
			<path id="XMLID_15_" class="st5" d="M-142.2,368.8c0,0,0.5-0.2,1.4-0.5c0.9-0.3,2.1-0.8,3.5-1.3c2.9-1.2,6.8-2.8,10.6-4.6
				c1.9-0.9,3.8-1.8,5.5-2.7s3.3-1.8,4.7-2.6c0.7-0.4,1.2-0.8,1.7-1.2c0.5-0.4,0.9-0.8,1-1.2c0.2-0.4-0.1-0.7-0.3-0.8
				c-0.2-0.1-0.3-0.2-0.3-0.2l0,0c0,0,0.1,0,0.3,0.2c0.1,0.1,0.2,0.2,0.3,0.3c0.1,0.2,0.1,0.4,0.1,0.6c-0.1,0.5-0.5,0.9-1,1.4
				c-0.5,0.4-1,0.9-1.7,1.3c-2.6,1.8-6.4,3.7-10.2,5.4c-3.8,1.7-7.7,3.3-10.7,4.3c-1.5,0.5-2.7,1-3.6,1.3
				C-141.7,368.7-142.2,368.8-142.2,368.8L-142.2,368.8z"/>
		</g>
		<path id="top_22_" class="st3" d="M-150.4,369.7c1.8-0.1,3.6-0.7,5.3-1.1c1.7-0.5,3.5-1.1,5.2-1.7c1.7-0.6,3.4-1.2,5.1-1.8
			l5.1-1.9l5.1-1.9c1.7-0.6,3.4-1.3,5.1-2l2.5-1c0.8-0.4,1.7-0.6,2.3-1.2c0.3-0.3,0.6-0.6,0.6-0.9c0-0.3-0.1-0.7-0.4-1.1
			c-0.5-0.7-1.2-1.3-2-1.6c-1.6-0.6-3.5-0.6-5.3-0.5c-1.8,0.1-3.6,0.4-5.4,0.7s-3.5,0.8-5.3,1.2c-1.8,0.5-3.5,1-5.2,1.5
			c-1.7,0.6-3.4,1.2-5.1,1.9c-1.7,0.7-3.3,1.5-4.8,2.5s-2.9,2.2-3.9,3.6c-0.5,0.7-0.7,1.5-0.8,2.3c0,0.2,0,1.4,0.1,1.7
			c0.1,0.2,0.2,0.3,0.4,0.5c0.2,0.2,0.6,0.3,0.6,0.3l-0.6,0.3c-0.3,0.1-0.3,0.6-0.2,1c0.1,0.4,0.2,0.7,0.6,1.1c0.3,0.4,0.6,0.6,1,1
			c0.4,0.4,0.8,0.6,1.4,0.7c0.5,0.1,1.6,0.1,2.6,0c1.1-0.1,4.3-1,5.3-1.3c4-1.1,5.8-1.9,9.8-3.1c4-1.3,8-2.6,11.9-4.1
			c1-0.4,2-0.8,2.9-1.2c1-0.4,1.9-0.9,2.8-1.4c0.4-0.3,0.8-0.6,1.1-1c0.1-0.2,0.2-0.4,0.2-0.7v-0.4c0-0.1,0-0.2-0.1-0.3
			c-0.1-0.2-0.3-0.4-0.4-0.6c-0.2-0.2-0.2-0.5-0.2-0.8c-0.1-0.5-0.2-1-0.7-1.3V357c0.5,0.3,0.7,0.9,0.8,1.4c0.1,0.3,0.1,0.5,0.2,0.7
			c0.1,0.2,0.3,0.4,0.5,0.6c0.1,0.1,0.1,0.3,0.1,0.4v0.4c0,0.3,0,0.6-0.2,0.8c-0.3,0.5-0.7,0.9-1.1,1.2c-0.7,0.8-4.6,2.4-5.5,2.8
			c-3.9,1.6-7.5,2.7-11.5,4c-2,0.7-7.4,2.4-9.4,2.9c-1,0.3-4.3,1.1-5.4,1.3c-0.3,0.1-0.2,0.1-0.8,0.1c-0.6,0.1-1.8,0.1-2.3,0
			c-0.6,0.1-1.6-0.3-2-0.7c-0.4-0.4-0.7-0.8-1-1.2c-0.3-0.4-0.6-1.2-0.6-1.6s0.4-0.6,0.5-0.7c0.1-0.1-0.1-0.1-0.3-0.3
			c-0.2-0.2-0.4-0.6-0.4-0.9c-0.1-0.3-0.1-0.6-0.1-0.8c0-0.2,0-0.5,0-0.7c0.1-1,0.5-1.9,1-2.7c1.1-1.6,2.6-2.6,4.2-3.6
			c0.8-0.5,1.6-0.9,2.4-1.4c0.8-0.4,1.7-0.8,2.5-1.1c1.7-0.7,3.4-1.4,5.1-2c3.5-1,6.3-1.9,9.9-2.6c1.8-0.3,3.6-0.6,5.4-0.8
			c1.8-0.1,3.7-0.2,5.5,0.4c0.9,0.3,1.7,0.9,2.3,1.7c0.3,0.4,0.6,0.9,0.5,1.4c0,0.6-0.4,1-0.8,1.4c-0.7,0.7-1.6,1-2.4,1.4
			s-1.7,0.7-2.5,1.1c-3.4,1.4-6.8,2.7-10.2,3.9c-3.4,1.2-6.9,2.4-10.4,3.5c-1.7,0.5-3.5,1.1-5.3,1.5
			C-146.8,369.3-148.6,369.8-150.4,369.7L-150.4,369.7z"/>
		<g id="top_s1_6_">
			<path id="XMLID_8_" class="st5" d="M-151.2,369.2c0,0-0.1-0.1-0.4-0.3c-0.2-0.2-0.5-0.5-0.7-1.1c-0.2-0.5-0.2-1.2,0.1-2
				c0.2-0.7,0.8-1.5,1.4-2.2c1.3-1.4,3.1-2.7,5.1-3.9s4.2-2.4,6.5-3.4c2.3-1,4.7-1.8,6.9-2.4c2.3-0.6,4.4-1.1,6.3-1.4
				c1.9-0.3,3.4-0.4,4.5-0.3c1.1,0,1.7,0.2,1.7,0.2s-0.6-0.1-1.7-0.1s-2.6,0.2-4.5,0.5c-1.8,0.3-3.9,0.9-6.2,1.5
				c-1.1,0.3-2.3,0.7-3.4,1.1c-1.2,0.4-2.3,0.9-3.4,1.4c-2.3,1-4.5,2.1-6.5,3.3c-2,1.2-3.8,2.4-5.1,3.7c-0.7,0.7-1.1,1.4-1.4,2
				c-0.3,0.7-0.3,1.4-0.2,1.9c0.1,0.5,0.4,0.9,0.6,1.1C-151.4,369.1-151.2,369.2-151.2,369.2z"/>
		</g>
	</g>
</g>
</svg>
