<?xml version="1.0" encoding="utf-8"?>
<!-- Generator: Adobe Illustrator 19.0.0, SVG Export Plug-In . SVG Version: 6.00 Build 0)  -->
<svg version="1.1" xmlns="http://www.w3.org/2000/svg" xmlns:xlink="http://www.w3.org/1999/xlink" x="0px" y="0px"
	 viewBox="0 0 130.5 131.4" style="enable-background:new 0 0 130.5 131.4;" xml:space="preserve">
<style type="text/css">
	.st0{fill:#9E5135;}
	.st1{fill:#66371B;}
	.st2{display:none;}
	.st3{display:inline;}
	.st4{fill:#FBD4DA;}
</style>
<g id="bg">
	<g id="border3_13_">
		<path id="XMLID_779_" class="st0" d="M85.2,6c24,9.7,40.5,33.6,41.1,60c0.3,14.2-4.1,28.5-12.4,39.8
			c-7.6,10.3-18.5,17.9-30.4,21.8c-24.6,8-52.5-0.7-68.9-21.6C-1.6,85.3-4,56,8.5,33.2C21.6,9.4,49.8-2.8,75.8,3.1
			C79,3.8,82.1,4.8,85.2,6c0.1,0,0.5-0.8,0.6-0.8C60.3-4.7,31.1,3,14.2,24.6c-15.9,20.2-18.9,48.7-6.7,72
			c13.1,25.1,41.4,39,68.4,33.6c24.5-4.9,44.2-24.9,49.5-49.9c5.8-27.2-6.7-56.2-30.2-70.5c-3-1.8-6.2-3.4-9.4-4.7
			C85.7,5.2,85.3,6,85.2,6z"/>
	</g>
	<path id="border2_13_" class="st1" d="M53.1,3.5c0,0,0.4-0.1,1.1-0.2c0.8-0.1,1.9-0.3,3.3-0.5c2.9-0.4,7.3-0.7,12.8-0.2
		C75.9,3,82.6,4.3,89.7,7.2c7.1,2.9,14.7,7.6,21.3,14.4c3.3,3.4,6.4,7.3,9.1,11.6c2.7,4.4,4.9,9.2,6.5,14.4
		c1.6,5.2,2.6,10.7,2.9,16.5c0.1,2.9,0.1,5.8-0.2,8.7c-0.1,1.5-0.3,2.9-0.5,4.4c-0.3,1.4-0.5,2.9-0.9,4.3
		C125.1,93,119,104.3,110,113c-8.9,8.8-20.6,14.9-33.1,17.3c-12.5,2.4-25.6,0.9-37.1-4.1c-11.5-4.9-21.3-13.1-28-22.9
		c-0.9-1.2-1.6-2.5-2.4-3.7C8.7,98.3,8,97,7.3,95.7c-1.3-2.6-2.4-5.3-3.4-8c-1.8-5.4-3-10.9-3.3-16.4c-0.4-5.4-0.1-10.8,0.8-15.8
		c0.9-5,2.4-9.8,4.2-14.2c3.8-8.7,9.1-15.8,14.7-21.1c5.6-5.4,11.3-8.9,16.3-11.4c5-2.4,9.2-3.7,12-4.4c1.4-0.4,2.5-0.6,3.3-0.8
		C52.7,3.6,53.1,3.5,53.1,3.5z M53.1,3.5c0,0-0.4,0.1-1.1,0.2c-0.7,0.2-1.9,0.4-3.3,0.8c-2.9,0.7-7,2-12,4.5
		c-4.9,2.4-10.7,6-16.2,11.4C14.9,25.7,9.6,32.8,5.9,41.5c-1.8,4.4-3.3,9.1-4.2,14.1c-0.9,5-1.1,10.3-0.8,15.7
		c0.4,5.4,1.5,10.9,3.4,16.3c1,2.7,2,5.3,3.4,7.9c0.6,1.3,1.4,2.6,2.1,3.8c0.8,1.2,1.5,2.5,2.4,3.7c6.7,9.7,16.4,17.8,27.8,22.6
		c11.4,4.8,24.4,6.3,36.8,3.9c12.3-2.3,24-8.3,32.8-17c8.9-8.6,15-19.7,17.7-31.2c0.4-1.4,0.6-2.9,0.9-4.3c0.2-1.4,0.5-2.9,0.6-4.3
		c0.3-2.9,0.3-5.8,0.3-8.6c-0.3-5.7-1.2-11.2-2.8-16.4c-1.6-5.2-3.8-10-6.4-14.4c-2.6-4.4-5.7-8.2-9-11.6
		C104.2,15,96.7,10.3,89.6,7.4c-7.1-3-13.8-4.3-19.3-4.7c-5.5-0.5-9.9-0.2-12.8,0.2c-1.5,0.1-2.6,0.4-3.3,0.5
		C53.5,3.4,53.1,3.5,53.1,3.5z"/>
	<g id="XMLID_3_">
		<path id="XMLID_6_" class="st0" d="M43.1,122.4c0.5,0.2,0.9,0.4,1.4,0.6c-2.1-0.9-4.2-1.9-6.2-3.1
			C39.9,120.9,41.5,121.7,43.1,122.4z"/>
		<path id="XMLID_31_" class="st0" d="M45.3,123.4c-0.3-0.1-0.5-0.2-0.8-0.3C44.8,123.2,45.1,123.3,45.3,123.4z"/>
		<path id="XMLID_33_" class="st0" d="M45.7,123.5c-0.1,0-0.2-0.1-0.3-0.1C45.4,123.5,45.6,123.5,45.7,123.5z"/>
		<path id="XMLID_34_" class="st0" d="M12.3,97.2c-13.5-22.5-11.8-51.5,2-71.6c3.3-4.8,4.1-5.6,8.4-10C2.5,34.1-3.7,65,8,90.4
			c5.8,12.7,15.6,23,27.3,29.6C25.9,114.6,17.9,106.6,12.3,97.2z"/>
		<path id="XMLID_36_" class="st0" d="M94.5,6.5C73.5-3.8,48.7-1.8,30.2,12C44.5,2.9,52.1,1.4,62,0.5c7.7-0.7,15.6-0.3,23.1,2.3
			c25.6,8.8,42.4,30.4,44.6,57.2c0.3,3.3,0.3,12.6,0.3,12.7C133.2,45.6,118.8,18.5,94.5,6.5z"/>
		<path id="XMLID_37_" class="st0" d="M120.7,98.4c-8.3,13.6-21.8,23.5-37.4,27.5c-12.3,3.2-25.6,2.4-37.6-2.4
			c7.6,3.1,15.7,4.7,23.9,4.7C94.2,127.7,114.3,111.8,120.7,98.4z"/>
	</g>
</g>
<g id="Layer_1">
	<g id="XMLID_1_" class="st2">
		<g id="XMLID_19_" class="st3">
			<g id="XMLID_20_">
				<g id="XMLID_21_">
					<polygon id="XMLID_22_" class="st4" points="38.4,13.1 31.4,4.4 14.2,19.5 2.9,36.6 8.1,39.8 8.1,39.8 12.4,42.5 					"/>
				</g>
			</g>
		</g>
	</g>
</g>
<g id="text">
</g>
</svg>
