<?xml version="1.0" encoding="utf-8"?>
<!-- Generator: Adobe Illustrator 19.0.0, SVG Export Plug-In . SVG Version: 6.00 Build 0)  -->
<svg version="1.1" id="Layer_1" xmlns="http://www.w3.org/2000/svg" xmlns:xlink="http://www.w3.org/1999/xlink" x="0px" y="0px"
	 viewBox="-191.8 325.1 144 144" style="enable-background:new -191.8 325.1 144 144;" xml:space="preserve">
<style type="text/css">
	.st0{display:none;}
	.st1{display:inline;fill:#FBD4DA;}
	.st2{display:inline;}
	.st3{fill:#9E5135;}
	.st4{display:inline;fill:#66371B;}
	.st5{fill:#FBD4DA;}
	.st6{fill:#66371B;}
	.st7{fill:#3C3438;}
	.st8{fill:#FFFFFF;}
	.st9{fill:#665E63;}
	.st10{fill:#3C3438;stroke:#FBD4DA;stroke-width:4;stroke-miterlimit:10;}
	.st11{fill:#3C3438;stroke:#FBD4DA;stroke-width:3;stroke-miterlimit:10;}
</style>
<g id="bg_copy" class="st0">
	<circle id="bg_2_" class="st1" cx="-119.8" cy="397.1" r="72"/>
	<g id="border3_1_" class="st2">
		<path id="XMLID_27_" class="st3" d="M-100.4,337.2c24,9.7,40.5,33.6,41.1,60c0.3,14.2-4.1,28.5-12.4,39.8
			c-7.6,10.3-18.5,17.9-30.4,21.8c-24.6,8-52.5-0.7-68.9-21.6c-16.2-20.7-18.6-50-6.1-72.8c13.1-23.8,41.3-36,67.3-30.1
			C-106.6,335-103.5,336-100.4,337.2c0.1,0,0.5-0.8,0.6-0.8c-25.4-9.9-54.6-2.2-71.6,19.4c-15.9,20.2-18.9,48.7-6.7,72
			c13.1,25.1,41.4,39,68.4,33.6c24.5-4.9,44.2-24.9,49.5-49.9c5.8-27.2-6.7-56.2-30.2-70.5c-3-1.8-6.2-3.4-9.4-4.7
			C-99.9,336.4-100.3,337.2-100.4,337.2z"/>
	</g>
	<path id="border2_1_" class="st4" d="M-132.5,334.7c0,0,0.4-0.1,1.1-0.2c0.8-0.1,1.9-0.3,3.3-0.5c2.9-0.4,7.3-0.7,12.8-0.2
		s12.2,1.7,19.3,4.7c7.1,2.9,14.7,7.6,21.3,14.4c3.3,3.4,6.4,7.3,9.1,11.6c2.7,4.4,4.9,9.2,6.5,14.4c1.6,5.2,2.6,10.7,2.9,16.5
		c0.1,2.9,0.1,5.8-0.2,8.7c-0.1,1.5-0.3,2.9-0.5,4.4c-0.3,1.4-0.5,2.9-0.9,4.3c-2.7,11.6-8.8,22.8-17.8,31.5
		c-8.9,8.8-20.6,14.9-33.1,17.3s-25.6,0.9-37.1-4.1c-11.5-4.9-21.3-13.1-28-22.9c-0.9-1.2-1.6-2.5-2.4-3.7c-0.7-1.3-1.5-2.5-2.1-3.9
		c-1.3-2.6-2.4-5.3-3.4-8c-1.8-5.4-3-10.9-3.3-16.4c-0.4-5.4-0.1-10.8,0.8-15.8c0.9-5,2.4-9.8,4.2-14.2c3.8-8.7,9.1-15.8,14.7-21.1
		c5.6-5.4,11.3-8.9,16.3-11.4c5-2.4,9.2-3.7,12-4.4c1.4-0.4,2.5-0.6,3.3-0.8C-132.9,334.8-132.5,334.7-132.5,334.7z M-132.5,334.7
		c0,0-0.4,0.1-1.1,0.2c-0.7,0.2-1.9,0.4-3.3,0.8c-2.9,0.7-7,2-12,4.5c-4.9,2.4-10.7,6-16.2,11.4c-5.6,5.3-10.9,12.4-14.6,21.1
		c-1.8,4.4-3.3,9.1-4.2,14.1c-0.9,5-1.1,10.3-0.8,15.7c0.4,5.4,1.5,10.9,3.4,16.3c1,2.7,2,5.3,3.4,7.9c0.6,1.3,1.4,2.6,2.1,3.8
		c0.8,1.2,1.5,2.5,2.4,3.7c6.7,9.7,16.4,17.8,27.8,22.6c11.4,4.8,24.4,6.3,36.8,3.9c12.3-2.3,24-8.3,32.8-17
		c8.9-8.6,15-19.7,17.7-31.2c0.4-1.4,0.6-2.9,0.9-4.3c0.2-1.4,0.5-2.9,0.6-4.3c0.3-2.9,0.3-5.8,0.3-8.6c-0.3-5.7-1.2-11.2-2.8-16.4
		c-1.6-5.2-3.8-10-6.4-14.4c-2.6-4.4-5.7-8.2-9-11.6c-6.6-6.8-14.1-11.4-21.2-14.4s-13.8-4.3-19.3-4.7c-5.5-0.5-9.9-0.2-12.8,0.2
		c-1.5,0.1-2.6,0.4-3.3,0.5C-132.1,334.6-132.5,334.7-132.5,334.7z"/>
	<g id="border1_1_" class="st2">
		<path id="XMLID_24_" class="st3" d="M-56.4,403.6c-3.2,25.7-21.5,47.2-46,53.6c-13.2,3.4-27.6,2.2-40.1-3.5
			c-11.4-5.2-21.2-14.3-27.8-25.2c-13.5-22.5-12.1-51.9,3.4-72.5c15.4-20.5,42.1-29.2,66.5-21.9c25.4,7.7,43.6,32.7,44.5,59.7
			C-55.9,397-56,400.3-56.4,403.6c0,0.1,0.9,0.3,0.9,0.4c3.1-27.2-11.3-54.3-35.5-66.2c-22.8-11.2-50-7.9-68.8,9.1
			c-20.4,18.4-26.5,49.3-14.8,74.7c10.5,23,34,38,58.6,37.8c26.8-0.2,50.9-18.8,58.4-45.1c1-3.4,1.6-6.8,2.1-10.3
			C-55.5,403.9-56.4,403.7-56.4,403.6z"/>
	</g>
</g>
<g id="bg">
	<circle id="bg_12_" class="st5" cx="-119.8" cy="397.1" r="72"/>
	<g id="border3_13_">
		<path id="XMLID_779_" class="st3" d="M-99.4,337.2c24,9.7,40.5,33.6,41.1,60c0.3,14.2-4.1,28.5-12.4,39.8
			c-7.6,10.3-18.5,17.9-30.4,21.8c-24.6,8-52.5-0.7-68.9-21.6c-16.2-20.7-18.6-50-6.1-72.8c13.1-23.8,41.3-36,67.3-30.1
			C-105.6,335-102.5,336-99.4,337.2c0.1,0,0.5-0.8,0.6-0.8c-25.4-9.9-54.6-2.2-71.6,19.4c-15.9,20.2-18.9,48.7-6.7,72
			c13.1,25.1,41.4,39,68.4,33.6c24.5-4.9,44.2-24.9,49.5-49.9c5.8-27.2-6.7-56.2-30.2-70.5c-3-1.8-6.2-3.4-9.4-4.7
			C-98.9,336.4-99.3,337.2-99.4,337.2z"/>
	</g>
	<path id="border2_13_" class="st6" d="M-131.5,334.7c0,0,0.4-0.1,1.1-0.2c0.8-0.1,1.9-0.3,3.3-0.5c2.9-0.4,7.3-0.7,12.8-0.2
		s12.2,1.7,19.3,4.7c7.1,2.9,14.7,7.6,21.3,14.4c3.3,3.4,6.4,7.3,9.1,11.6c2.7,4.4,4.9,9.2,6.5,14.4c1.6,5.2,2.6,10.7,2.9,16.5
		c0.1,2.9,0.1,5.8-0.2,8.7c-0.1,1.5-0.3,2.9-0.5,4.4c-0.3,1.4-0.5,2.9-0.9,4.3c-2.7,11.6-8.8,22.8-17.8,31.5
		c-8.9,8.8-20.6,14.9-33.1,17.3s-25.6,0.9-37.1-4.1c-11.5-4.9-21.3-13.1-28-22.9c-0.9-1.2-1.6-2.5-2.4-3.7c-0.7-1.3-1.5-2.5-2.1-3.9
		c-1.3-2.6-2.4-5.3-3.4-8c-1.8-5.4-3-10.9-3.3-16.4c-0.4-5.4-0.1-10.8,0.8-15.8c0.9-5,2.4-9.8,4.2-14.2c3.8-8.7,9.1-15.8,14.7-21.1
		c5.6-5.4,11.3-8.9,16.3-11.4c5-2.4,9.2-3.7,12-4.4c1.4-0.4,2.5-0.6,3.3-0.8C-131.9,334.8-131.5,334.7-131.5,334.7z M-131.5,334.7
		c0,0-0.4,0.1-1.1,0.2c-0.7,0.2-1.9,0.4-3.3,0.8c-2.9,0.7-7,2-12,4.5c-4.9,2.4-10.7,6-16.2,11.4c-5.6,5.3-10.9,12.4-14.6,21.1
		c-1.8,4.4-3.3,9.1-4.2,14.1c-0.9,5-1.1,10.3-0.8,15.7c0.4,5.4,1.5,10.9,3.4,16.3c1,2.7,2,5.3,3.4,7.9c0.6,1.3,1.4,2.6,2.1,3.8
		c0.8,1.2,1.5,2.5,2.4,3.7c6.7,9.7,16.4,17.8,27.8,22.6c11.4,4.8,24.4,6.3,36.8,3.9c12.3-2.3,24-8.3,32.8-17
		c8.9-8.6,15-19.7,17.7-31.2c0.4-1.4,0.6-2.9,0.9-4.3c0.2-1.4,0.5-2.9,0.6-4.3c0.3-2.9,0.3-5.8,0.3-8.6c-0.3-5.7-1.2-11.2-2.8-16.4
		c-1.6-5.2-3.8-10-6.4-14.4c-2.6-4.4-5.7-8.2-9-11.6c-6.6-6.8-14.1-11.4-21.2-14.4s-13.8-4.3-19.3-4.7c-5.5-0.5-9.9-0.2-12.8,0.2
		c-1.5,0.1-2.6,0.4-3.3,0.5C-131.1,334.6-131.5,334.7-131.5,334.7z"/>
	<g id="XMLID_3_">
		<path id="XMLID_6_" class="st3" d="M-141.5,453.6c0.5,0.2,0.9,0.4,1.4,0.6c-2.1-0.9-4.2-1.9-6.2-3.1
			C-144.7,452.1-143.1,452.9-141.5,453.6z"/>
		<path id="XMLID_31_" class="st3" d="M-139.3,454.6c-0.3-0.1-0.5-0.2-0.8-0.3C-139.8,454.4-139.6,454.5-139.3,454.6z"/>
		<path id="XMLID_33_" class="st3" d="M-138.9,454.7c-0.1,0-0.2-0.1-0.3-0.1C-139.2,454.7-139.1,454.7-138.9,454.7z"/>
		<path id="XMLID_34_" class="st3" d="M-172.3,428.4c-13.5-22.5-11.8-51.5,2-71.6c3.3-4.8,4.1-5.6,8.4-10
			c-20.3,18.5-26.4,49.4-14.7,74.8c5.8,12.7,15.6,23,27.3,29.6C-158.7,445.8-166.7,437.8-172.3,428.4z"/>
		<path id="XMLID_36_" class="st3" d="M-90.1,337.7c-21-10.3-45.9-8.3-64.4,5.5c14.3-9.1,21.9-10.6,31.8-11.5
			c7.7-0.7,15.6-0.3,23.1,2.3c25.6,8.8,42.4,30.4,44.6,57.2c0.3,3.3,0.3,12.6,0.3,12.7C-51.5,376.8-65.8,349.7-90.1,337.7z"/>
		<path id="XMLID_37_" class="st3" d="M-63.9,429.6c-8.3,13.6-21.8,23.5-37.4,27.5c-12.3,3.2-25.6,2.4-37.6-2.4
			c7.6,3.1,15.7,4.7,23.9,4.7C-90.4,458.9-70.3,443-63.9,429.6z"/>
	</g>
</g>
<g id="Layer_1_1_">
	<g id="XMLID_1_" class="st0">
		<g id="XMLID_19_" class="st2">
			<g id="XMLID_20_">
				<g id="XMLID_21_">
					<polygon id="XMLID_22_" class="st5" points="-146.2,344.3 -153.2,335.6 -170.4,350.7 -181.7,367.8 -176.5,371 -176.5,371 
						-172.3,373.7 					"/>
				</g>
			</g>
		</g>
	</g>
	<g id="XMLID_630_">
		<g id="XMLID_446_">
			<path id="XMLID_32_" class="st7" d="M-86.2,362.5c0,0,0.5,0.6,1.4,1.8c0.2,0.3,0.5,0.6,0.7,0.9c0.2,0.4,0.5,0.8,0.7,1.2
				c0.2,0.4,0.5,0.9,0.8,1.4c0.2,0.5,0.4,1.1,0.7,1.6c0.1,0.3,0.2,0.6,0.3,0.9c0.1,0.3,0.2,0.6,0.2,0.9c0.1,0.6,0.4,1.3,0.5,2
				c0.1,0.7,0.2,1.4,0.2,2.2c0,0.7,0,1.5,0,2.3c-0.1,1.5-0.3,3.1-0.7,4.7c-0.2,0.8-0.5,1.6-0.7,2.3c-0.2,0.8-0.6,1.5-0.9,2.3
				c-0.7,1.5-1.5,2.9-2.4,4.3c-0.4,0.7-0.9,1.3-1.4,1.9s-1,1.2-1.6,1.7s-1.1,1.1-1.7,1.5l-0.4,0.3l-0.1,0.1l0,0l0,0h-0.1l-0.2,0.1
				c-0.3,0.2-0.7,0.3-1,0.4c-1.4,0.5-2.8,0.5-4,0.1c-1.2-0.4-2.1-1.1-2.8-1.9c-0.7-0.7-1.1-1.5-1.5-2.1c-0.3-0.6-0.6-1.1-0.7-1.5
				c-0.1-0.4-0.2-0.5-0.2-0.5l0,0c0,0,0.1,0.2,0.2,0.5c0.2,0.4,0.4,0.8,0.8,1.5c0.4,0.6,0.9,1.3,1.5,2c0.7,0.7,1.6,1.4,2.7,1.7
				c1.1,0.3,2.5,0.3,3.7-0.2c0.3-0.1,0.6-0.3,0.9-0.4l0.2-0.1h0.1l0,0l0,0l0,0l0.1-0.1l0.4-0.3c0.6-0.4,1.1-0.9,1.7-1.4
				c0.5-0.5,1-1.1,1.5-1.7c0.5-0.6,1-1.2,1.4-1.9c0.9-1.3,1.7-2.7,2.4-4.2c0.3-0.7,0.7-1.5,0.9-2.2c0.3-0.8,0.6-1.5,0.7-2.3
				c0.4-1.5,0.6-3.1,0.8-4.6c0-0.8,0-1.5,0-2.2c-0.1-0.7-0.1-1.4-0.2-2.1c-0.1-0.7-0.3-1.3-0.4-2c-0.1-0.3-0.2-0.6-0.2-0.9
				c-0.1-0.3-0.2-0.6-0.3-0.9c-0.2-0.6-0.4-1.1-0.6-1.6c-0.2-0.5-0.5-0.9-0.8-1.4c-0.2-0.4-0.5-0.8-0.7-1.2c-0.2-0.4-0.5-0.7-0.7-1
				C-85.7,363.2-86.2,362.6-86.2,362.5L-86.2,362.5z"/>
		</g>
		<g id="XMLID_632_">
			<path id="XMLID_633_" class="st8" d="M-94.4,360.8c-6.2,1.9-10.5,7.9-12.8,13.7c-2.6,6.5-2.9,14.3,1.1,20.3
				c1.5,2.2,5.1,0,3.7-2.1c-3.4-5-3.1-11.2-1.1-16.7c1.7-4.5,5-9.7,9.9-11.2C-91.1,364-91.8,359.9-94.4,360.8L-94.4,360.8z"/>
		</g>
		<g id="XMLID_345_">
			<path id="XMLID_12_" class="st7" d="M-98.8,395.8c-0.1,0.2-0.3,0.3-0.5,0.5c-0.2,0.1-0.4,0.2-0.7,0.2c-0.5,0-0.9-0.3-1.2-0.6l0,0
				l0,0c-0.3-0.3-0.7-0.7-1-1.1c-0.3-0.4-0.6-0.8-0.8-1.2c-0.3-0.4-0.5-0.9-0.7-1.3c-0.2-0.4-0.4-0.9-0.5-1.4
				c-0.2-0.5-0.3-0.9-0.4-1.4s-0.2-1-0.3-1.5c0-0.5-0.1-1-0.1-1.5V385l0.1-1.5c0-0.5,0.1-1,0.2-1.5s0.2-1,0.3-1.4
				c0.1-0.5,0.2-1,0.4-1.4l0.5-1.4l0.6-1.4c0.4-0.9,0.8-1.8,1.3-2.6l0,0c-0.4,0.9-0.8,1.7-1.2,2.7l-0.5,1.4l-0.4,1.4
				c-0.1,0.5-0.2,0.9-0.3,1.4c-0.1,0.5-0.2,0.9-0.3,1.4c-0.1,0.5-0.1,1-0.2,1.4l-0.1,1.4l0.1,1.4c0,0.5,0.1,1,0.2,1.4
				c0.1,0.5,0.2,0.9,0.3,1.4c0.1,0.5,0.3,0.9,0.4,1.4c0.2,0.4,0.3,0.9,0.5,1.3s0.4,0.9,0.6,1.3s0.5,0.8,0.8,1.2s0.6,0.8,0.9,1.1l0,0
				c0.3,0.3,0.7,0.6,1.1,0.6C-99.5,396.4-99.1,396.1-98.8,395.8L-98.8,395.8z"/>
		</g>
		<path id="top_30_" class="st9" d="M-102.2,392.1c-0.6-1.7-1-3.4-1.2-5.2c-0.2-1.8-0.1-3.5,0.1-5.3c0.3-1.8,0.7-3.5,1.2-5.2
			c0.1-0.4,0.3-0.8,0.4-1.3l0.2-0.6c0.1-0.2,0.2-0.4,0.3-0.6c0.3-0.8,0.7-1.6,1.1-2.4c0.8-1.6,1.8-3.1,2.9-4.4
			c1.2-1.3,2.5-2.5,4.2-3.3c1.6-0.8,3.5-1,5.2-0.8c0.9,0.1,1.8,0.4,2.5,0.8c0.8,0.4,1.5,1,2,1.7c1.1,1.4,1.7,3.1,2,4.9
			c0.3,1.7,0.3,3.5,0.2,5.3c-0.1,1.8-0.4,3.5-0.8,5.2c-0.4,1.7-0.9,3.4-1.6,5.1c-0.6,1.6-1.4,3.2-2.4,4.7s-2.1,2.9-3.5,4
			c-1.4,1.1-3,2-4.8,2.2c-1.8,0.3-3.6-0.1-5.3-0.8h0.2c-0.3,0.1-0.6,0-0.8-0.1c-0.2-0.1-0.4-0.3-0.6-0.4c-0.2-0.1-0.4-0.3-0.5-0.4
			c-0.2-0.1-0.4-0.1-0.6-0.2c-0.4-0.1-0.9-0.3-1.3-0.6c-0.2-0.1-0.4-0.3-0.6-0.5l-0.2-0.3l-0.2-0.3c-0.6-0.8-1-1.6-1.3-2.5
			s-0.6-1.8-0.7-2.7c-0.2-0.9-0.3-1.9-0.3-2.8s0-1.9,0-2.8c0.1-0.9,0.2-1.9,0.3-2.8c0.1-0.9,0.3-1.9,0.5-2.8
			c0.2-0.9,0.4-1.8,0.7-2.7c0.1-0.4,0.3-0.9,0.5-1.3c0.2-0.4,0.3-0.9,0.6-1.3c0.2-0.4,0.4-0.9,0.6-1.3l0.3-0.6
			c0.1-0.2,0.2-0.4,0.4-0.6c0.1-0.2,0.2-0.4,0.4-0.6l0.4-0.6c0.3-0.4,0.6-0.7,0.9-1.1c0.3-0.4,0.6-0.7,0.9-1.1s0.7-0.7,1-1
			c0.2-0.2,0.3-0.3,0.5-0.5l0.5-0.5l0.5-0.5c0.2-0.2,0.4-0.3,0.6-0.4c0.8-0.5,1.7-0.9,2.6-1.1c0.5-0.1,0.9-0.1,1.4-0.2
			c0.5,0,0.9,0,1.4,0.2l0,0c0.3,0,0.5,0,0.8,0.1c0.3,0.1,0.5,0.3,0.7,0.3s0.5,0,0.8,0.1c0.3,0,0.5,0.1,0.8,0.2l0,0
			c-0.2-0.1-0.5-0.1-0.8-0.1s-0.5,0-0.8,0c-0.3-0.1-0.5-0.2-0.7-0.3s-0.5-0.1-0.7-0.1l0,0l0,0c-0.4-0.1-0.9-0.1-1.4-0.1
			s-0.9,0.1-1.4,0.2c-0.9,0.2-1.8,0.6-2.5,1.1c-0.2,0.1-0.4,0.3-0.6,0.4l-0.5,0.5l-0.5,0.5c-0.2,0.2-0.3,0.3-0.5,0.5
			c-0.3,0.3-0.7,0.6-1,1c-0.3,0.3-0.6,0.7-0.9,1c-0.3,0.4-0.6,0.7-0.8,1.1l-0.4,0.6c-0.1,0.2-0.2,0.4-0.4,0.6
			c-0.1,0.2-0.2,0.4-0.4,0.6l-0.3,0.6c-0.2,0.4-0.4,0.8-0.6,1.2c-0.2,0.4-0.4,0.9-0.5,1.3c-0.2,0.4-0.3,0.9-0.4,1.3
			c-0.3,0.9-0.5,1.8-0.7,2.7s-0.3,1.8-0.5,2.7c-0.1,0.9-0.2,1.8-0.3,2.8c-0.1,0.9-0.1,1.8,0,2.8c0,0.9,0.2,1.8,0.3,2.7
			c0.2,0.9,0.4,1.8,0.7,2.7c0.3,0.9,0.7,1.7,1.2,2.4l0.2,0.3l0.2,0.3c0.2,0.2,0.3,0.3,0.5,0.4c0.4,0.2,0.8,0.4,1.2,0.5
			c0.2,0.1,0.5,0.1,0.7,0.2c0.3,0.1,0.4,0.3,0.6,0.4s0.4,0.3,0.6,0.4s0.4,0.1,0.5,0.1h0.1h0.1c1.6,0.7,3.3,1,5,0.8
			c1.7-0.2,3.3-1,4.7-2.1c1.4-1.1,2.5-2.5,3.4-3.9c1-1.5,1.7-3,2.4-4.7c0.7-1.6,1.2-3.3,1.6-5c0.4-1.7,0.7-3.4,0.9-5.2
			c0.1-1.7,0.1-3.5-0.2-5.2c-0.3-1.7-0.9-3.4-2-4.8c-0.6-0.7-1.2-1.2-2-1.6c-0.8-0.4-1.6-0.7-2.5-0.8c-1.7-0.2-3.5,0-5,0.8
			c-1.6,0.8-2.9,1.9-4,3.2c-1.1,1.3-2.1,2.8-2.9,4.3c-0.4,0.8-0.8,1.6-1.1,2.4c-0.1,0.2-0.2,0.4-0.3,0.6l-0.2,0.6
			c-0.2,0.4-0.3,0.8-0.4,1.2c-0.6,1.7-1,3.4-1.3,5.1c-0.3,1.7-0.4,3.5-0.2,5.2C-103,388.7-102.6,390.4-102.2,392.1L-102.2,392.1z"/>
		<path id="XMLID_439_" class="st7" d="M-109.7,376.9c-0.8,2.9-1.1,5-0.8,7.5c0.2,2.5,1.1,4.9,2.1,7.2l0,0c-1.1-2.3-2.1-4.7-2.3-7.2
			c-0.3-2.5-0.2-3.9,0.7-7.6C-110,376.7-109.7,376.6-109.7,376.9z"/>
		<path id="XMLID_438_" class="st9" d="M-105.2,363c1-0.7,2.2-1.4,3.3-1.9c0.6-0.2,1.2-0.5,1.9-0.5c0.6,0,1.3,0,1.9,0
			c0.3,0,0.6,0.1,1,0.2c0.1,0,0.2,0.1,0.2,0.1c0.1,0,0.2,0.2,0.2,0.3c0,0.1-0.1,0.2-0.2,0.3s-0.2,0.1-0.2,0.1
			c-0.2,0.1-0.3,0.1-0.5,0.2c-0.2,0-0.3,0.1-0.5,0.1c-0.3,0.1-0.6,0.2-0.9,0.3c-1.2,0.5-2.2,1.1-3.2,1.9c-2,1.5-3.8,3.8-4.8,5.8
			c-0.1,0.2-0.5,0.5-0.3-0.2c0.5-1.4,2.9-4.3,4.9-5.9c1-0.8,2.1-1.4,3.3-1.9c0.3-0.1,0.6-0.2,0.9-0.3s0.6-0.1,0.9-0.3
			c0.1-0.1,0.3-0.2,0.3-0.2s-0.1-0.1-0.2-0.2c-0.3-0.1-0.6-0.1-0.9-0.2c-0.6-0.1-1.3-0.1-1.9,0c-0.6,0.1-1.2,0.3-1.8,0.5
			c-1.2,0.5-2.3,1.1-3.3,1.8c-0.9,0.7-1.1,0.9-2.9,2.5C-106.5,364-105.2,363-105.2,363z"/>
		<g id="XMLID_447_">
			<path id="XMLID_10_" class="st9" d="M-114.3,379.2c0,0,0,0.2-0.1,0.6c-0.1,0.4-0.1,1-0.2,1.7c-0.1,1.4,0,3.3,0.5,5
				c0.1,0.4,0.3,0.9,0.5,1.3c0.2,0.4,0.4,0.8,0.7,1.1c0.3,0.3,0.6,0.6,0.9,0.8c0.3,0.3,0.6,0.5,0.8,0.7c0.3,0.2,0.5,0.4,0.8,0.5
				c0.2,0.1,0.5,0.2,0.7,0.3c0.4,0.1,0.6,0.3,0.6,0.3l0,0c0,0-0.2-0.1-0.6-0.1c-0.4-0.1-1-0.2-1.6-0.6c-0.3-0.2-0.6-0.4-0.9-0.7
				c-0.3-0.2-0.6-0.5-0.9-0.9s-0.5-0.8-0.7-1.2c-0.2-0.4-0.3-0.9-0.5-1.3c-0.5-1.8-0.5-3.8-0.3-5.2c0.1-0.7,0.2-1.3,0.2-1.7
				C-114.4,379.4-114.4,379.2-114.3,379.2L-114.3,379.2z"/>
		</g>
		<path id="XMLID_139_" class="st7" d="M-113.6,383.2c0.1,1.3,0.3,2.5,0.6,3.7c0.2,1.2,0.7,2.4,1.4,3.4c0.4,0.5,0.8,0.9,1.3,1.3
			c0.5,0.3,1.1,0.6,1.7,0.6c0.2,0,0.4,0.1,0.5,0.2c0.2,0.1,0.3,0.2,0.4,0.2c0.3,0.1,0.6,0.3,0.9,0.4s0.6,0.3,0.8,0.4
			c0.1,0,0.3,0.1,0.4,0.1s0.1,0,0.1,0s0,0,0-0.1c0-0.2-0.2-0.5-0.3-0.8l-0.5-0.8c-0.3-0.5-0.7-1.1-0.9-1.7c-0.3-0.6-0.5-1.2-0.6-1.9
			c-0.1-0.6-0.2-1.3-0.3-1.9c-0.2-2.6-0.1-5.1,0.2-7.7c0.2-1.3,0.5-2.5,0.8-3.7c0.4-1.2,0.9-2.4,1.5-3.5c1.2-2.3,2.8-4.3,4.6-6.1
			c0.9-0.9,1.9-1.7,3-2.3c0.6-0.3,1.2-0.5,1.8-0.7c0.3-0.1,0.6-0.2,0.9-0.2s0.6-0.1,1-0.1v0.1c-0.1-0.1-0.1-0.2-0.2-0.2
			c-0.1-0.1-0.2-0.1-0.3-0.1c-0.2,0-0.4,0.1-0.7,0l0,0l0,0c-0.2-0.1-0.3-0.2-0.5-0.2s-0.4,0-0.6,0l0,0c0.2,0,0.4,0,0.6,0
			s0.4,0.1,0.6,0.2l0,0c0.2,0.1,0.4,0,0.6,0c0.1,0,0.2,0,0.3,0.1c0.1,0.1,0.2,0.2,0.2,0.2v0.1h-0.1c-0.6,0.1-1.3,0.1-1.8,0.4
			c-0.6,0.2-1.2,0.4-1.7,0.8c-1.1,0.6-2.1,1.5-3,2.3c-1.8,1.8-3.3,3.8-4.5,6.1c-0.6,1.1-1.1,2.3-1.4,3.5c-0.4,1.2-0.6,2.4-0.8,3.7
			c-0.4,2.5-0.4,5-0.2,7.5c0.1,0.6,0.1,1.2,0.3,1.9c0.1,0.6,0.3,1.2,0.6,1.8c0.3,0.6,0.6,1.1,0.9,1.7l0.5,0.8
			c0.1,0.1,0.2,0.3,0.2,0.4c0.1,0.2,0.1,0.3,0.1,0.6c0,0.1,0,0.3-0.1,0.4s-0.3,0.1-0.4,0.1c-0.2,0-0.4-0.1-0.5-0.1
			c-0.3-0.1-0.6-0.2-0.9-0.4c-0.3-0.1-0.6-0.3-0.8-0.4c-0.2-0.1-0.3-0.2-0.5-0.2c-0.1-0.1-0.2-0.1-0.4-0.1c-1.4-0.2-2.5-1.1-3.2-2.1
			c-0.8-1.1-1.2-2.3-1.4-3.6c-0.2-1.3-0.4-2.5-0.5-3.8c-0.3-2.6,0.2-4.8,1.1-9C-113,375.7-113.9,380.7-113.6,383.2z"/>
	</g>
	<g id="XMLID_600_">
		<g id="filling_6_">
			<path id="XMLID_442_" class="st8" d="M-144.9,379.4c12.3-2,24-5.6,35.2-11c0.1,0-5.1-8.1-6.9-7.2c-11.2,5.4-22.9,9-35.2,11
				c-0.4,0.1,2.7,3.9,2.9,4.1C-148.1,377.2-146.2,379.6-144.9,379.4L-144.9,379.4z"/>
		</g>
		<g id="bot_s2_6_">
			<path id="XMLID_30_" class="st9" d="M-140,380.7c0,0,2.1-0.5,5.2-1.4c3.1-0.9,7.2-2.1,11.3-3.5c1-0.3,2-0.7,3-1.1
				c1-0.4,2-0.7,2.9-1.1s1.8-0.8,2.6-1.2c0.8-0.4,1.6-0.8,2.2-1.2c0.7-0.4,1.3-0.9,1.8-1.2c0.5-0.4,1-0.7,1.3-1.1
				c0.1-0.2,0.2-0.4,0.1-0.4c-0.1-0.1-0.3-0.1-0.4,0c-0.2,0-0.4,0.1-0.4,0.1l0,0c0,0,0.1,0,0.4-0.1c0.1,0,0.3,0,0.5,0
				c0.1,0,0.2,0.2,0.1,0.3c0,0.1-0.1,0.2-0.2,0.3c-0.6,0.8-1.7,1.6-3,2.6c-0.7,0.5-1.4,0.9-2.2,1.4c-0.8,0.4-1.7,0.8-2.7,1.2
				c-1.9,0.8-3.9,1.5-5.9,2.1c-4.1,1.3-8.2,2.5-11.3,3.3C-137.9,380.3-140,380.7-140,380.7L-140,380.7z"/>
		</g>
		<g id="bot_s1_6_">
			<path id="XMLID_23_" class="st9" d="M-136.7,385.2c0,0,0.6-0.1,1.5-0.3c1-0.2,2.3-0.5,3.9-0.9c3.2-0.9,7.5-2.4,11.5-4.3
				c2-1,4-2,5.8-3.1s3.4-2.2,4.5-3.4c0.3-0.3,0.5-0.6,0.7-0.9c0.2-0.3,0.4-0.6,0.6-0.9c0.3-0.6,0.5-1.2,0.5-1.6
				c0-0.5-0.3-0.8-0.5-0.9s-0.4-0.1-0.4-0.1l0,0c0,0,0.1,0,0.4,0.1c0.2,0.1,0.6,0.4,0.7,0.9s-0.1,1.1-0.4,1.8
				c-0.1,0.3-0.3,0.6-0.5,1c-0.2,0.3-0.5,0.7-0.7,1c-1.2,1.3-2.8,2.4-4.6,3.5c-1.8,1.1-3.8,2.1-5.9,3.1c-4.1,1.9-8.3,3.3-11.6,4.2
				c-1.6,0.4-3,0.7-4,0.8C-136.2,385.2-136.7,385.3-136.7,385.2L-136.7,385.2z"/>
		</g>
		<path id="bottom_6_" class="st7" d="M-147.1,381.8c0.8,0.2,1.7,0.2,2.5,0.1c0.8-0.1,1.7-0.2,2.5-0.4c1.7-0.3,3.3-0.7,5-1.1
			c1.6-0.4,3.3-0.9,4.9-1.3c1.6-0.5,3.3-0.9,4.9-1.4c3.2-1,6.5-2.1,9.7-3.2c0.8-0.3,1.6-0.6,2.3-1c0.8-0.4,1.5-0.8,2.2-1.2
			c1.4-0.9,3.8-2.9,4.1-3c0.1-0.1,0.3,0,0.4,0c0.4,0.2,0.8,0.8,1,1.4c0.2,0.5,0.2,1.1,0.1,1.7c-0.3,1.1-0.9,1.9-1.6,2.7
			c-0.7,0.8-1.6,1.4-2.4,2c-0.9,0.6-1.8,1.1-2.7,1.6c-1.8,1-3.7,1.8-5.6,2.7c-1.9,0.8-3.8,1.6-5.8,2.2c-2,0.6-3.9,1.2-5.9,1.7
			s-4,0.9-6.1,1.2c-1,0.1-2.1,0.3-3.1,0.3c-1.1,0-2.1-0.1-3.1-0.4c-1-0.2-2.1-0.7-2.9-1.5c-0.8-0.8-1.2-1.9-1.4-3
			c0,0-0.7-0.4-0.9-0.9c-0.1-0.1-0.2-2.5-0.1-3c0.1-0.5,0.5-1.2,0.8-1.2c0.3-0.1,0.5,0.1,0.7,0.3c3.4,1.3,11.4-1.2,15.6-2.5
			c2.9-0.9,9-2.8,12-4.1c3-1.2,6.6-2.7,8.4-4.3c0.4-0.4,0.7-1,0.7-1.6v-0.3l0.2,0.1c0.4,0.2,0.8,0.6,1,1c0.2,0.5,0,0.9,0.2,1.3
			s0.5,0.8,0.5,1.2c0.1,0.5,0,0.9-0.2,1.3c0,0,0.2-0.9,0.1-1.3s-0.3-0.8-0.6-1.2c-0.1-0.2-0.2-0.5-0.2-0.7c0-0.2,0-0.4-0.1-0.6
			c-0.1-0.4-0.5-0.6-0.9-0.8l0.2-0.1c0,0.7-0.3,1.4-0.8,1.9s-1,0.9-1.6,1.2l0,0l-1,0.6l-1,0.5c-0.7,0.3-1.4,0.7-2.1,1
			c-1.4,0.6-2.8,1.2-4.3,1.7c-2.9,1.1-5.8,2.1-8.7,3c-1.5,0.5-2.9,0.9-4.4,1.3s-3,0.8-4.5,1.2c-1.5,0.3-3,0.7-4.6,0.9
			c-0.8,0.1-1.6,0.2-2.4,0.1c-0.4,0-0.9-0.1-1.3-0.3c-0.2-0.1-0.4-0.2-0.5-0.3c-0.1,0-0.3-0.1-0.5-0.1s-0.5,0.8-0.6,1.2
			c-0.1,0.4-0.1,0.8-0.1,1.3v0.7c0,0.1,0,0.2,0,0.3s0,0.2,0.1,0.3c0.1,0.3,0.4,0.6,0.7,0.8l0.2,0.1v0.2c0.2,1,0.5,1.9,1.2,2.5
			c0.6,0.7,1.6,1.1,2.5,1.3c4.2,0.8,9.5-0.2,12.6-1c3-0.8,10-3.1,15.6-5.9c1.8-1,6.7-3.5,7.7-6.7c0.2-0.9-0.1-2.5-0.6-2.4
			c-0.3,0.2-1.2,2.4-8.3,5.5c-3.2,1.2-6.5,2.2-9.7,3.2c-3.3,1-6.6,1.8-9.9,2.6c-1.7,0.4-3.3,0.7-5,0.9c-0.8,0.1-1.7,0.2-2.5,0.3
			C-145.5,382.1-146.4,382.1-147.1,381.8L-147.1,381.8z"/>
		<g id="top_s3_6_">
			<path id="XMLID_17_" class="st9" d="M-143.2,372.5c0,0,0.5-0.1,1.4-0.4c0.9-0.3,2.2-0.7,3.7-1.3c3.1-1.1,7.1-2.6,11.2-4.1
				c2-0.8,4-1.6,5.9-2.3c1.9-0.7,3.7-1.4,5.2-2c0.7-0.3,1.4-0.6,2-0.9c0.6-0.3,1.1-0.6,1.4-0.9c0.4-0.3,0.6-0.5,0.7-0.8
				c0.1-0.2,0.1-0.4,0.1-0.4l0,0c0,0,0,0.1-0.1,0.4c-0.1,0.2-0.3,0.5-0.7,0.9c-0.4,0.3-0.9,0.6-1.4,1c-0.6,0.4-1.2,0.7-2,1
				c-3,1.4-7,2.9-11.1,4.3c-4.1,1.5-8.2,2.9-11.3,3.9c-1.5,0.5-2.8,0.9-3.7,1.2C-142.7,372.4-143.2,372.5-143.2,372.5L-143.2,372.5z
				"/>
		</g>
		<g id="top_s2_6_">
			<path id="XMLID_15_" class="st9" d="M-142.2,368.8c0,0,0.5-0.2,1.4-0.5c0.9-0.3,2.1-0.8,3.5-1.3c2.9-1.2,6.8-2.8,10.6-4.6
				c1.9-0.9,3.8-1.8,5.5-2.7c1.7-0.9,3.3-1.8,4.7-2.6c0.7-0.4,1.2-0.8,1.7-1.2c0.5-0.4,0.9-0.8,1-1.2c0.2-0.4-0.1-0.7-0.3-0.8
				c-0.2-0.1-0.3-0.2-0.3-0.2l0,0c0,0,0.1,0,0.3,0.2c0.1,0.1,0.2,0.2,0.3,0.3c0.1,0.2,0.1,0.4,0.1,0.6c-0.1,0.5-0.5,0.9-1,1.4
				c-0.5,0.4-1,0.9-1.7,1.3c-2.6,1.8-6.4,3.7-10.2,5.4c-3.8,1.7-7.7,3.3-10.7,4.3c-1.5,0.5-2.7,1-3.6,1.3
				C-141.7,368.7-142.2,368.8-142.2,368.8L-142.2,368.8z"/>
		</g>
		<path id="top_22_" class="st7" d="M-150.4,369.7c1.8-0.1,3.6-0.7,5.3-1.1c1.7-0.5,3.5-1.1,5.2-1.7c1.7-0.6,3.4-1.2,5.1-1.8
			l5.1-1.9l5.1-1.9c1.7-0.6,3.4-1.3,5.1-2l2.5-1c0.8-0.4,1.7-0.6,2.3-1.2c0.3-0.3,0.6-0.6,0.6-0.9c0-0.3-0.1-0.7-0.4-1.1
			c-0.5-0.7-1.2-1.3-2-1.6c-1.6-0.6-3.5-0.6-5.3-0.5c-1.8,0.1-3.6,0.4-5.4,0.7s-3.5,0.8-5.3,1.2c-1.8,0.5-3.5,1-5.2,1.5
			c-1.7,0.6-3.4,1.2-5.1,1.9c-1.7,0.7-3.3,1.5-4.8,2.5s-2.9,2.2-3.9,3.6c-0.5,0.7-0.7,1.5-0.8,2.3c0,0.2,0,1.4,0.1,1.7
			c0.1,0.2,0.2,0.3,0.4,0.5c0.2,0.2,0.6,0.3,0.6,0.3l-0.6,0.3c-0.3,0.1-0.3,0.6-0.2,1c0.1,0.4,0.2,0.7,0.6,1.1c0.3,0.4,0.6,0.6,1,1
			c0.4,0.4,0.8,0.6,1.4,0.7c0.5,0.1,1.6,0.1,2.6,0c1.1-0.1,4.3-1,5.3-1.3c4-1.1,5.8-1.9,9.8-3.1c4-1.3,8-2.6,11.9-4.1
			c1-0.4,2-0.8,2.9-1.2c1-0.4,1.9-0.9,2.8-1.4c0.4-0.3,0.8-0.6,1.1-1c0.1-0.2,0.2-0.4,0.2-0.7v-0.4c0-0.1,0-0.2-0.1-0.3
			c-0.1-0.2-0.3-0.4-0.4-0.6c-0.2-0.2-0.2-0.5-0.2-0.8c-0.1-0.5-0.2-1-0.7-1.3V357c0.5,0.3,0.7,0.9,0.8,1.4c0.1,0.3,0.1,0.5,0.2,0.7
			c0.1,0.2,0.3,0.4,0.5,0.6c0.1,0.1,0.1,0.3,0.1,0.4v0.4c0,0.3,0,0.6-0.2,0.8c-0.3,0.5-0.7,0.9-1.1,1.2c-0.7,0.8-4.6,2.4-5.5,2.8
			c-3.9,1.6-7.5,2.7-11.5,4c-2,0.7-7.4,2.4-9.4,2.9c-1,0.3-4.3,1.1-5.4,1.3c-0.3,0.1-0.2,0.1-0.8,0.1c-0.6,0.1-1.8,0.1-2.3,0
			c-0.6,0.1-1.6-0.3-2-0.7c-0.4-0.4-0.7-0.8-1-1.2c-0.3-0.4-0.6-1.2-0.6-1.6s0.4-0.6,0.5-0.7c0.1-0.1-0.1-0.1-0.3-0.3
			c-0.2-0.2-0.4-0.6-0.4-0.9c-0.1-0.3-0.1-0.6-0.1-0.8c0-0.2,0-0.5,0-0.7c0.1-1,0.5-1.9,1-2.7c1.1-1.6,2.6-2.6,4.2-3.6
			c0.8-0.5,1.6-0.9,2.4-1.4c0.8-0.4,1.7-0.8,2.5-1.1c1.7-0.7,3.4-1.4,5.1-2c3.5-1,6.3-1.9,9.9-2.6c1.8-0.3,3.6-0.6,5.4-0.8
			c1.8-0.1,3.7-0.2,5.5,0.4c0.9,0.3,1.7,0.9,2.3,1.7c0.3,0.4,0.6,0.9,0.5,1.4c0,0.6-0.4,1-0.8,1.4c-0.7,0.7-1.6,1-2.4,1.4
			s-1.7,0.7-2.5,1.1c-3.4,1.4-6.8,2.7-10.2,3.9c-3.4,1.2-6.9,2.4-10.4,3.5c-1.7,0.5-3.5,1.1-5.3,1.5
			C-146.8,369.3-148.6,369.8-150.4,369.7L-150.4,369.7z"/>
		<g id="top_s1_6_">
			<path id="XMLID_8_" class="st9" d="M-151.2,369.2c0,0-0.1-0.1-0.4-0.3c-0.2-0.2-0.5-0.5-0.7-1.1c-0.2-0.5-0.2-1.2,0.1-2
				c0.2-0.7,0.8-1.5,1.4-2.2c1.3-1.4,3.1-2.7,5.1-3.9s4.2-2.4,6.5-3.4c2.3-1,4.7-1.8,6.9-2.4c2.3-0.6,4.4-1.1,6.3-1.4
				s3.4-0.4,4.5-0.3c1.1,0,1.7,0.2,1.7,0.2s-0.6-0.1-1.7-0.1s-2.6,0.2-4.5,0.5c-1.8,0.3-3.9,0.9-6.2,1.5c-1.1,0.3-2.3,0.7-3.4,1.1
				c-1.2,0.4-2.3,0.9-3.4,1.4c-2.3,1-4.5,2.1-6.5,3.3c-2,1.2-3.8,2.4-5.1,3.7c-0.7,0.7-1.1,1.4-1.4,2c-0.3,0.7-0.3,1.4-0.2,1.9
				c0.1,0.5,0.4,0.9,0.6,1.1C-151.4,369.1-151.2,369.2-151.2,369.2z"/>
		</g>
	</g>
</g>
<g id="text">
	<g id="XMLID_555_">
		<path id="XMLID_599_" class="st10" d="M-85.9,422.7c-3.6-1-10.1,3.3-10.8,6.3c-0.7,3,1.4,6.4,7.2,7.8c5.7,1.4,15.3,0.7,30.9-10
			c2.3-1.3-0.4-2.9-1.2-2.6c-2.6,0.9-2.2,1.6-3.9,2.9c-1.7,1.3-11,8.3-23.5,7.7c-9.5-1.1-8.2-6.5-5.6-8c0.8-0.4,3.9-2.3,6.4-1.3
			c1.4,0.6,0.8,2,1.4,1.6c0.3-0.3,1.5-1,1-2.7C-84.3,423.3-84.8,423-85.9,422.7z"/>
		<g id="XMLID_593_">
			<path id="XMLID_596_" class="st11" d="M-139.6,435.5c0.1-1.2,14.7-32.8,15.6-35c1-2.2,2.8-7.5,4.6-6.6s1,3.2,0.5,5.4
				c-0.5,2.2-5.4,22.2-17.8,28.8c-12.4,6.6-3.5-0.2,1.4-3.8c8-6.1,14-21.6,14-25.2l-14.4,33.2C-135.7,432.3-139.7,436.6-139.6,435.5
				z"/>
		</g>
		<g id="XMLID_561_">
			<path id="XMLID_562_" class="st10" d="M-161.2,437.2c-2.4,0.5-9.1,1.9-10.8-4.7c-1.7-6.6,5.6-17.4,8.6-21.5s9-10.7,11.9-11.4
				c4.5-1.2,7.5,2.2,6.7,6.8s-3.6,9.8-5.4,13.2c-1.8,3.4-2.9,5.4-4.7,6.1c-0.6,0.2-2.9,0.3,0-3.8c4.1-5.8,7.4-13.5,7.8-15.7
				c0.4-2.2-0.4-4.1-1.9-4.6s-6.2,0.8-12.2,9.8c-6.1,9-7.8,14.9-8.3,17.1s-1,6.6,5.4,7S-158.7,436.7-161.2,437.2z"/>
		</g>
		<g id="XMLID_556_">
			<path id="XMLID_560_" class="st7" d="M-99.3,435c-15.9,6.4-22.8-1.6-24.8-7c-0.1-0.3-0.4-0.4-0.7-0.2c-2.2,1.5-11.4,7.6-12.7,8.3
				c-1.5,0.8-2.2,0.4-2.2-0.8c0-1.2,14.7-32.8,15.6-35c1-2.2,2.8-7.5,4.6-6.6c1.8,0.9,1,3.2,0.5,5.4s-5.4,22.2-17.8,28.8
				c-12.4,6.6-21.8,8.6-24.3,9.1c-2.4,0.5-9.1,1.9-10.8-4.7c-1.7-6.6,5.6-17.4,8.6-21.5s9-10.7,11.9-11.4c4.5-1.2,7.5,2.2,6.7,6.8
				c-0.8,4.6-3.6,9.8-5.4,13.2c-1.8,3.4-2.9,5.4-4.7,6.1c-0.6,0.2-2.9,0.3,0-3.8c4.1-5.8,7.4-13.5,7.8-15.7c0.4-2.2-0.4-4.1-1.9-4.6
				s-6.2,0.8-12.2,9.8s-7.5,14.9-7.9,17.1c-0.5,2.2-1,6.6,5.4,7c6.4,0.4,23.5-7.5,28.4-11.1c8-6.1,14-21.6,14-25.2l-14.4,33.2
				c0,0,9.7-6.4,10.5-6.8c0.8-0.5,2-1.2,2.4,0.3c2.9,10.1,11.7,10.8,18.6,8.5c6.8-2.2,14.7-7.1,16.3-8.6c1.7-1.5,3.2-1.5,3.7-0.9
				c0.5,0.6,0.2,1.5-1.2,2.6C-86.2,428.2-94.9,433-99.3,435z"/>
			<path id="XMLID_559_" class="st7" d="M-85.9,422.8c-3.6-1-10.1,3.3-10.8,6.3s1.4,6.4,7.2,7.8c5.7,1.4,15.3,0.7,30.9-10
				c2.3-1.3-0.4-2.9-1.2-2.6c-2.6,0.9-2.2,1.6-3.9,2.9s-11,8.3-23.5,7.7c-9.5-1.1-8.2-6.5-5.6-8c0.8-0.4,3.9-2.3,6.4-1.3
				c1.4,0.6,0.8,2,1.4,1.6c0.3-0.3,1.5-1,1-2.7C-84.3,423.4-84.8,423.1-85.9,422.8z"/>
			<path id="XMLID_557_" class="st7" d="M-90.2,416.8c0.5,0.1,0.8,0.3,1,0.3c0.4,0.1,1.3,0.2,3.6-0.5s4.2-1.8,5.1-2.3
				c0.4-0.2,1-0.9,1.3-1c0.4-0.2,1.3-0.4,1.5-0.2c0.6,0.6-1.5,2.5-1.7,2.6c-0.4,0.4-2.3,1.6-5.2,2.8c-2.9,1.2-5.3,1.4-6.3,1.3
				c-0.4-0.1-1.2-0.3-1.4-1.5C-92.5,417.3-91.5,416.6-90.2,416.8z"/>
		</g>
	</g>
	<g id="XMLID_28_">
		<path id="XMLID_4_" class="st3" d="M-141.9,446.4l2.4-2.2h0.7v6h-1.6v-3.1l-1.6,1.4l-1.6-1.4v3.1h-1.4v-6h0.7L-141.9,446.4z"/>
		<path id="XMLID_35_" class="st3" d="M-137.9,450.2l2.8-6h0.7l2.8,6h-1.6l-0.4-0.8h-2.4l-0.4,0.8H-137.9z M-135.4,448h1.2l-0.6-1.3
			L-135.4,448z"/>
		<path id="XMLID_40_" class="st3" d="M-127.3,446.1c-0.2-0.2-0.6-0.4-1-0.4c-0.8,0-1.4,0.6-1.4,1.4s0.6,1.4,1.4,1.4
			c0.4,0,0.8-0.1,1-0.4l1.1,1.1c-0.5,0.5-1.3,0.9-2.1,0.9c-1.7,0-3-1.3-3-3s1.3-3,3-3c0.8,0,1.6,0.3,2.1,0.9L-127.3,446.1z"/>
		<path id="XMLID_42_" class="st3" d="M-125.3,450.2l2.8-6h0.7l2.8,6h-1.6l-0.4-0.8h-2.5l-0.4,0.8H-125.3z M-122.8,448h1.2l-0.6-1.3
			L-122.8,448z"/>
		<path id="XMLID_45_" class="st3" d="M-114.7,450.2l-0.9-1.6h-1v1.6h-1.6v-6h2.5c1.2,0,2.2,1,2.2,2.2c0,0.6-0.3,1.2-0.7,1.6
			l1.3,2.2H-114.7z M-116.6,447.2h1c0.5,0,0.9-0.4,0.9-0.9s-0.4-0.9-0.9-0.9h-1V447.2z"/>
		<path id="XMLID_48_" class="st3" d="M-109.4,444.2c1.7,0,3,1.4,3,3c0,1.6-1.3,3-3,3s-3-1.3-3-3
			C-112.4,445.5-111.1,444.2-109.4,444.2z M-109.4,445.7c-0.8,0-1.4,0.6-1.4,1.4c0,0.8,0.6,1.4,1.4,1.4s1.4-0.6,1.4-1.4
			C-108,446.4-108.6,445.7-109.4,445.7z"/>
		<path id="XMLID_51_" class="st3" d="M-100.9,450.2l-2.8-2.8v2.8h-1.6v-6h0.6l2.8,2.8v-2.8h1.6v6H-100.9z"/>
		<path id="XMLID_53_" class="st3" d="M-96.9,446c0-0.2-0.2-0.5-0.5-0.5s-0.4,0.2-0.4,0.5c0,0.2,0.2,0.4,0.4,0.4
			c0.6,0,1.1,0.3,1.4,0.7c0.3,0.3,0.4,0.7,0.4,1.2c0,1-0.8,1.8-1.8,1.8s-1.8-0.8-1.8-1.9h1.4c0,0.3,0.2,0.5,0.4,0.5s0.5-0.2,0.5-0.4
			c0-0.2-0.2-0.5-0.5-0.5c-1,0-1.8-0.8-1.8-1.8s0.8-1.8,1.8-1.8s1.8,0.8,1.8,1.8H-96.9z"/>
	</g>
</g>
</svg>
